G04*
G04 #@! TF.GenerationSoftware,Altium Limited,Altium Designer,19.1.9 (167)*
G04*
G04 Layer_Physical_Order=1*
G04 Layer_Color=255*
%FSLAX25Y25*%
%MOIN*%
G70*
G01*
G75*
%ADD12C,0.00600*%
%ADD15C,0.01000*%
%ADD18R,0.07480X0.07480*%
%ADD19R,0.07480X0.07087*%
%ADD20R,0.05315X0.01575*%
%ADD21R,0.06299X0.08268*%
%ADD22R,0.07480X0.09646*%
%ADD23R,0.01614X0.01968*%
%ADD24R,0.02480X0.01968*%
%ADD25R,0.02165X0.02165*%
%ADD26R,0.12992X0.20079*%
%ADD27R,0.03150X0.03150*%
%ADD28R,0.05709X0.04528*%
%ADD29R,0.02362X0.04724*%
%ADD30R,0.02165X0.02165*%
%ADD31R,0.04134X0.13386*%
%ADD32R,0.08268X0.16929*%
%ADD33R,0.02559X0.06004*%
%ADD34R,0.02205X0.02441*%
%ADD35R,0.05276X0.07087*%
%ADD59C,0.01500*%
%ADD60C,0.02500*%
%ADD61C,0.05000*%
%ADD62C,0.05906*%
%ADD63C,0.17717*%
%ADD64C,0.06693*%
%ADD65R,0.06693X0.06693*%
%ADD66C,0.02400*%
%ADD67C,0.02402*%
G36*
X212256Y162752D02*
X210999Y162232D01*
X209281Y161179D01*
X207748Y159870D01*
X206439Y158337D01*
X205386Y156619D01*
X204615Y154756D01*
X204145Y152797D01*
X203986Y150787D01*
X204145Y148778D01*
X204615Y146818D01*
X205386Y144956D01*
X206439Y143238D01*
X207748Y141705D01*
X209281Y140396D01*
X210999Y139343D01*
X212862Y138572D01*
X214821Y138101D01*
X216831Y137943D01*
X218840Y138101D01*
X220800Y138572D01*
X222662Y139343D01*
X224380Y140396D01*
X225913Y141705D01*
X227222Y143238D01*
X228275Y144956D01*
X228795Y146212D01*
X229295Y146113D01*
Y18159D01*
X228795Y18059D01*
X228275Y19315D01*
X227222Y21034D01*
X225913Y22567D01*
X224380Y23876D01*
X222662Y24929D01*
X220800Y25700D01*
X218840Y26170D01*
X216831Y26329D01*
X214821Y26170D01*
X212862Y25700D01*
X210999Y24929D01*
X209281Y23876D01*
X207748Y22567D01*
X206439Y21034D01*
X205386Y19315D01*
X204615Y17453D01*
X204145Y15494D01*
X203986Y13484D01*
X204145Y11475D01*
X204615Y9515D01*
X205386Y7653D01*
X206439Y5935D01*
X207748Y4402D01*
X209281Y3093D01*
X210999Y2040D01*
X212256Y1519D01*
X212156Y1020D01*
X18159D01*
X18059Y1519D01*
X19315Y2040D01*
X21034Y3093D01*
X22567Y4402D01*
X23876Y5935D01*
X24929Y7653D01*
X25700Y9515D01*
X26170Y11475D01*
X26329Y13484D01*
X26170Y15494D01*
X25700Y17453D01*
X24929Y19315D01*
X23876Y21034D01*
X22567Y22567D01*
X21034Y23876D01*
X19315Y24929D01*
X17453Y25700D01*
X15494Y26170D01*
X13484Y26329D01*
X11475Y26170D01*
X11137Y26089D01*
X10744Y26399D01*
Y29126D01*
X6004D01*
Y29626D01*
X5504D01*
Y34169D01*
X1264D01*
X1020Y34568D01*
Y34723D01*
X1264Y35122D01*
X1519Y35122D01*
X5504D01*
Y39862D01*
X6004D01*
Y40362D01*
X10744D01*
Y44571D01*
Y48811D01*
X6004D01*
Y49311D01*
X5504D01*
Y54051D01*
X1519D01*
X1264Y54051D01*
X1020Y54450D01*
Y54605D01*
X1264Y55004D01*
X1519Y55004D01*
X5504D01*
Y59547D01*
Y64091D01*
X1519D01*
X1264Y64091D01*
X1020Y64489D01*
Y146113D01*
X1519Y146212D01*
X2040Y144956D01*
X3093Y143238D01*
X4402Y141705D01*
X5934Y140396D01*
X7653Y139343D01*
X9515Y138572D01*
X11475Y138101D01*
X13484Y137943D01*
X15494Y138101D01*
X17453Y138572D01*
X19315Y139343D01*
X21034Y140396D01*
X22567Y141705D01*
X23876Y143238D01*
X24929Y144956D01*
X25700Y146818D01*
X26170Y148778D01*
X26329Y150787D01*
X26170Y152797D01*
X25700Y154756D01*
X24929Y156619D01*
X23876Y158337D01*
X22567Y159870D01*
X21034Y161179D01*
X19315Y162232D01*
X18059Y162752D01*
X18159Y163252D01*
X212156Y163252D01*
X212256Y162752D01*
D02*
G37*
%LPC*%
G36*
X102362Y154882D02*
X66732D01*
X66273Y154692D01*
X66083Y154232D01*
Y150307D01*
X65583Y150137D01*
X64790Y150745D01*
X63733Y151183D01*
X63098Y151267D01*
Y146949D01*
Y142631D01*
X63733Y142714D01*
X64790Y143152D01*
X65583Y143760D01*
X66083Y143591D01*
Y136639D01*
X65583Y136504D01*
X64755Y137139D01*
X63698Y137577D01*
X63063Y137661D01*
Y133343D01*
Y129024D01*
X63698Y129108D01*
X64755Y129546D01*
X65583Y130181D01*
X66083Y130046D01*
Y126142D01*
X38652D01*
X38438Y126594D01*
X39044Y127331D01*
X39959Y129044D01*
X40523Y130902D01*
X40664Y132335D01*
X30807D01*
X20950D01*
X21091Y130902D01*
X21655Y129044D01*
X22571Y127331D01*
X23176Y126594D01*
X22962Y126142D01*
X13681D01*
X13222Y125951D01*
X13032Y125492D01*
Y61925D01*
X11894D01*
Y57291D01*
X16043D01*
Y56291D01*
X11894D01*
Y51657D01*
X13032D01*
Y51492D01*
X13222Y51033D01*
X13278Y51010D01*
Y48317D01*
Y45758D01*
Y41256D01*
X12878D01*
Y39968D01*
X16535D01*
X20193D01*
Y41256D01*
X19793D01*
Y43199D01*
Y47508D01*
X20193Y47776D01*
X26044D01*
Y38691D01*
X25483D01*
Y35647D01*
X25483Y35325D01*
X25483Y34825D01*
Y31782D01*
X28848D01*
Y32547D01*
X30207D01*
Y31388D01*
X34557D01*
X34557Y35738D01*
X34995Y35886D01*
X35362D01*
X67612Y3636D01*
X67612Y3636D01*
X67976Y3393D01*
X68405Y3308D01*
X68406Y3308D01*
X158465D01*
X158465Y3308D01*
X158894Y3393D01*
X159258Y3636D01*
X165540Y9919D01*
X165748Y9877D01*
X166450Y10017D01*
X167046Y10415D01*
X167164Y10591D01*
X185461D01*
X185461Y10591D01*
X185890Y10676D01*
X186254Y10920D01*
X204541Y29207D01*
X210848D01*
Y37100D01*
X208023D01*
Y49941D01*
X212151Y54069D01*
X212151Y54069D01*
X212394Y54433D01*
X212480Y54862D01*
X212480Y54862D01*
Y61506D01*
X215305D01*
Y69399D01*
X207412D01*
Y61506D01*
X210237D01*
Y55327D01*
X206108Y51199D01*
X205865Y50835D01*
X205780Y50406D01*
X205780Y50406D01*
Y37100D01*
X202955D01*
Y30793D01*
X184996Y12834D01*
X167164D01*
X167046Y13010D01*
X166450Y13408D01*
X165748Y13548D01*
X165504Y13499D01*
X165258Y13960D01*
X176183Y24885D01*
X189551D01*
X189902Y24955D01*
X190200Y25154D01*
X194821Y29776D01*
X194911Y29706D01*
X195871Y29309D01*
X196902Y29173D01*
X197932Y29309D01*
X198892Y29706D01*
X199716Y30339D01*
X200349Y31163D01*
X200746Y32123D01*
X200882Y33154D01*
X200746Y34184D01*
X200349Y35144D01*
X199716Y35968D01*
X198892Y36601D01*
X197932Y36998D01*
X196902Y37134D01*
X195871Y36998D01*
X194911Y36601D01*
X194087Y35968D01*
X193454Y35144D01*
X193057Y34184D01*
X192921Y33154D01*
X193057Y32123D01*
X193454Y31163D01*
X193524Y31073D01*
X189171Y26721D01*
X175803D01*
X175452Y26651D01*
X175154Y26452D01*
X157100Y8398D01*
X140922D01*
X140668Y8778D01*
X140072Y9176D01*
X139370Y9316D01*
X138668Y9176D01*
X138072Y8778D01*
X137674Y8183D01*
X137535Y7480D01*
X137674Y6778D01*
X138072Y6183D01*
X138270Y6051D01*
X138118Y5551D01*
X68870D01*
X36620Y37801D01*
X36256Y38044D01*
X35827Y38129D01*
X35827Y38129D01*
X28848D01*
Y38691D01*
X28287D01*
Y47776D01*
X62697D01*
X63156Y47966D01*
X63346Y48425D01*
Y76319D01*
X97220D01*
X97680Y76509D01*
X97821Y76851D01*
X101179D01*
X101320Y76509D01*
X101779Y76319D01*
X102362D01*
X102821Y76509D01*
X102963Y76851D01*
X106379D01*
Y84055D01*
X105418D01*
Y84833D01*
X106210D01*
Y87976D01*
X106610D01*
Y89559D01*
X104528D01*
Y90059D01*
X104028D01*
Y92142D01*
X103012D01*
Y110236D01*
X103279Y110636D01*
X107033D01*
Y131915D01*
X103279D01*
X103012Y132315D01*
Y154232D01*
X102821Y154692D01*
X102362Y154882D01*
D02*
G37*
G36*
X62098Y151267D02*
X61464Y151183D01*
X60407Y150745D01*
X59499Y150049D01*
X58802Y149141D01*
X58364Y148083D01*
X58280Y147449D01*
X62098D01*
Y151267D01*
D02*
G37*
G36*
Y146449D02*
X58280D01*
X58364Y145814D01*
X58802Y144757D01*
X59499Y143849D01*
X60407Y143152D01*
X61464Y142714D01*
X62098Y142631D01*
Y146449D01*
D02*
G37*
G36*
X62063Y137661D02*
X61428Y137577D01*
X60371Y137139D01*
X59463Y136442D01*
X58766Y135535D01*
X58328Y134477D01*
X58245Y133843D01*
X62063D01*
Y137661D01*
D02*
G37*
G36*
X31307Y142691D02*
Y133335D01*
X40664D01*
X40523Y134767D01*
X39959Y136626D01*
X39044Y138338D01*
X37812Y139839D01*
X36311Y141071D01*
X34598Y141987D01*
X32740Y142550D01*
X31307Y142691D01*
D02*
G37*
G36*
X30307Y142691D02*
X28874Y142550D01*
X27016Y141987D01*
X25304Y141071D01*
X23802Y139839D01*
X22571Y138338D01*
X21655Y136626D01*
X21091Y134767D01*
X20950Y133335D01*
X30307D01*
Y142691D01*
D02*
G37*
G36*
X62063Y132843D02*
X58245D01*
X58328Y132208D01*
X58766Y131150D01*
X59463Y130243D01*
X60371Y129546D01*
X61428Y129108D01*
X62063Y129024D01*
Y132843D01*
D02*
G37*
G36*
X195874Y126953D02*
Y123531D01*
X199295D01*
X199225Y124063D01*
X198827Y125025D01*
X198193Y125851D01*
X197367Y126484D01*
X196406Y126883D01*
X195874Y126953D01*
D02*
G37*
G36*
X194874Y126953D02*
X194342Y126883D01*
X193381Y126484D01*
X192555Y125851D01*
X191921Y125025D01*
X191523Y124063D01*
X191453Y123531D01*
X194874D01*
Y126953D01*
D02*
G37*
G36*
Y122531D02*
X191453D01*
X191523Y122000D01*
X191921Y121038D01*
X192555Y120212D01*
X193381Y119579D01*
X194342Y119181D01*
X194874Y119111D01*
Y122531D01*
D02*
G37*
G36*
X199295D02*
X195874D01*
Y119111D01*
X196406Y119181D01*
X197367Y119579D01*
X198193Y120212D01*
X198827Y121038D01*
X199225Y122000D01*
X199295Y122531D01*
D02*
G37*
G36*
X106610Y92142D02*
X105028D01*
Y90559D01*
X106610D01*
Y92142D01*
D02*
G37*
G36*
X221858Y90243D02*
Y86425D01*
X225676D01*
X225593Y87060D01*
X225155Y88117D01*
X224458Y89025D01*
X223550Y89722D01*
X222493Y90160D01*
X221858Y90243D01*
D02*
G37*
G36*
X220858D02*
X220224Y90160D01*
X219166Y89722D01*
X218258Y89025D01*
X217562Y88117D01*
X217124Y87060D01*
X217040Y86425D01*
X220858D01*
Y90243D01*
D02*
G37*
G36*
X122000Y91969D02*
X119433D01*
Y84776D01*
X122000D01*
Y91969D01*
D02*
G37*
G36*
X217421Y135804D02*
X217421Y135804D01*
X190551D01*
X189742Y135697D01*
X188988Y135385D01*
X188340Y134888D01*
X183494Y130042D01*
X182997Y129394D01*
X182685Y128640D01*
X182631Y128235D01*
X182578Y127831D01*
X182578Y127831D01*
Y126158D01*
X168898D01*
X168898Y126158D01*
X168493Y126105D01*
X168088Y126052D01*
X167776Y125922D01*
X167334Y125739D01*
X166687Y125242D01*
X163104Y121660D01*
X162607Y121012D01*
X162295Y120258D01*
X162188Y119449D01*
X162188Y119449D01*
Y114281D01*
X161939D01*
Y105994D01*
X163993D01*
X168074Y101913D01*
Y95925D01*
X168074Y95925D01*
X168101Y95722D01*
Y85227D01*
X171917D01*
Y81286D01*
X162809Y72177D01*
X146260D01*
X145909Y72108D01*
X145611Y71909D01*
X137737Y64035D01*
X137538Y63737D01*
X137468Y63386D01*
Y51955D01*
X134807Y49294D01*
X117292D01*
X116995Y49591D01*
X117008Y50119D01*
X117306Y50378D01*
X117339D01*
Y51961D01*
X115256D01*
Y52461D01*
X114756D01*
Y54543D01*
X113173D01*
Y54143D01*
X111328D01*
X110475Y54997D01*
X110555Y55497D01*
X111380D01*
Y62700D01*
X107621D01*
Y55497D01*
X108582D01*
Y54673D01*
X108652Y54322D01*
X108851Y54024D01*
X109020Y53856D01*
X108812Y53356D01*
X106626D01*
Y54232D01*
X106556Y54584D01*
X106358Y54881D01*
X106193Y55046D01*
X106379Y55497D01*
X106379D01*
Y62700D01*
X102620D01*
Y55497D01*
X103708D01*
Y55315D01*
X103778Y54964D01*
X103977Y54666D01*
X104787Y53856D01*
X104782Y53356D01*
X102254D01*
Y51410D01*
X100994D01*
Y53356D01*
X94085D01*
Y47628D01*
X100994D01*
Y49575D01*
X102254D01*
Y47628D01*
X109163D01*
Y53005D01*
X109663Y53212D01*
X110030Y52846D01*
Y50778D01*
X110795D01*
Y50059D01*
X110030D01*
Y46693D01*
X112642D01*
X112909Y46380D01*
X112889Y46043D01*
X112820Y45974D01*
X110030D01*
Y45209D01*
X109163D01*
Y46466D01*
X102254D01*
Y40739D01*
X109163D01*
Y43374D01*
X110030D01*
Y42609D01*
X113173D01*
Y42209D01*
X114756D01*
Y44291D01*
X115256D01*
Y44791D01*
X117339D01*
Y46374D01*
X117306D01*
X116939Y46693D01*
X116939Y46874D01*
Y47458D01*
X135187D01*
X135538Y47528D01*
X135836Y47727D01*
X139035Y50926D01*
X139234Y51224D01*
X139304Y51575D01*
Y63006D01*
X146640Y70342D01*
X163189D01*
X163540Y70412D01*
X163838Y70611D01*
X173484Y80257D01*
X173682Y80554D01*
X173752Y80905D01*
Y85227D01*
X177568D01*
Y103356D01*
X174308D01*
X174221Y104018D01*
X173909Y104772D01*
X173412Y105420D01*
X168442Y110390D01*
Y118154D01*
X170193Y119905D01*
X183796D01*
X184604Y119570D01*
X185531Y119448D01*
X186459Y119570D01*
X187323Y119928D01*
X188065Y120498D01*
X188635Y121240D01*
X188993Y122104D01*
X189115Y123031D01*
X188993Y123959D01*
X188831Y124348D01*
Y126536D01*
X191846Y129550D01*
X216126D01*
X220102Y125575D01*
Y112516D01*
X209147Y101561D01*
X208650Y100914D01*
X208338Y100160D01*
X208285Y99755D01*
X208231Y99350D01*
X208231Y99350D01*
Y89872D01*
X207412D01*
Y81979D01*
X215305D01*
Y89872D01*
X214485D01*
Y98055D01*
X225439Y109010D01*
X225439Y109010D01*
X225936Y109657D01*
X226249Y110411D01*
X226355Y111221D01*
X226355Y111221D01*
Y126870D01*
X226355Y126870D01*
X226302Y127275D01*
X226249Y127679D01*
X225936Y128433D01*
X225439Y129081D01*
X225439Y129081D01*
X219632Y134888D01*
X218985Y135385D01*
X218231Y135697D01*
X217421Y135804D01*
D02*
G37*
G36*
X225676Y85425D02*
X221858D01*
Y81607D01*
X222493Y81691D01*
X223550Y82129D01*
X224458Y82825D01*
X225155Y83733D01*
X225593Y84790D01*
X225676Y85425D01*
D02*
G37*
G36*
X220858D02*
X217040D01*
X217124Y84790D01*
X217562Y83733D01*
X218258Y82825D01*
X219166Y82129D01*
X220224Y81691D01*
X220858Y81607D01*
Y85425D01*
D02*
G37*
G36*
X116779Y84455D02*
X115000D01*
Y80953D01*
X116779D01*
Y84455D01*
D02*
G37*
G36*
X114000D02*
X112221D01*
Y80953D01*
X114000D01*
Y84455D01*
D02*
G37*
G36*
X158268Y132342D02*
X149559D01*
X149100Y132152D01*
X149002Y131915D01*
X134967D01*
Y110636D01*
X134967D01*
X135017Y110562D01*
X134882Y110236D01*
Y105217D01*
X135072Y104757D01*
X135531Y104567D01*
X144921D01*
Y88646D01*
X144654Y88246D01*
X137660D01*
Y77400D01*
X147893D01*
X147895Y77395D01*
X148354Y77205D01*
X158268D01*
X158727Y77395D01*
X158917Y77854D01*
Y131693D01*
X158727Y132152D01*
X158268Y132342D01*
D02*
G37*
G36*
X122000Y83776D02*
X119433D01*
Y76583D01*
X122000D01*
Y83776D01*
D02*
G37*
G36*
X116779Y79953D02*
X115000D01*
Y76451D01*
X116779D01*
Y79953D01*
D02*
G37*
G36*
X114000D02*
X112221D01*
Y76451D01*
X114000D01*
Y79953D01*
D02*
G37*
G36*
X125567Y91969D02*
X125497Y91969D01*
X125497Y91969D01*
X123000D01*
Y84276D01*
Y76583D01*
X123474D01*
X123626Y76083D01*
X123505Y76002D01*
X123251Y75622D01*
X111502D01*
X110774Y76351D01*
X110981Y76851D01*
X111380D01*
Y84055D01*
X107621D01*
Y76851D01*
X108582D01*
Y76327D01*
X108652Y75976D01*
X108851Y75678D01*
X110473Y74056D01*
X110771Y73857D01*
X111122Y73787D01*
X123251D01*
X123505Y73407D01*
X124101Y73009D01*
X124803Y72869D01*
X125505Y73009D01*
X126101Y73407D01*
X126164Y73501D01*
X126664Y73349D01*
X126664Y72530D01*
X126664Y72030D01*
Y70284D01*
X126123Y69743D01*
X125924Y69446D01*
X125854Y69095D01*
Y67037D01*
X123416D01*
Y65091D01*
X100197D01*
X99846Y65021D01*
X99548Y64822D01*
X98761Y64035D01*
X98562Y63737D01*
X98492Y63386D01*
Y62700D01*
X97620D01*
Y55497D01*
X101380D01*
Y62700D01*
X101270D01*
X101003Y63200D01*
X101040Y63256D01*
X111785D01*
X112221Y63100D01*
X112221Y62756D01*
Y59598D01*
X114500D01*
X116779D01*
Y62756D01*
X116779Y63100D01*
X117215Y63256D01*
X123416D01*
Y61309D01*
X130324D01*
Y67037D01*
X127689D01*
Y68714D01*
X127962Y68987D01*
X130029D01*
Y72030D01*
X130029Y72352D01*
X130029Y72852D01*
Y73841D01*
X130529Y73993D01*
X130789Y73604D01*
X131384Y73206D01*
X132087Y73066D01*
X132789Y73206D01*
X133384Y73604D01*
X133782Y74199D01*
X133922Y74902D01*
X133782Y75604D01*
X133384Y76199D01*
X133530Y76658D01*
X134273Y77400D01*
X136655D01*
Y79959D01*
Y82518D01*
Y85077D01*
Y88246D01*
X133038D01*
X133034Y88254D01*
X132575Y88445D01*
X131473D01*
X131072Y88712D01*
Y91568D01*
X125808Y91568D01*
X125785Y91606D01*
X125567Y91969D01*
D02*
G37*
G36*
X221858Y69771D02*
Y65953D01*
X225676D01*
X225593Y66587D01*
X225155Y67645D01*
X224458Y68553D01*
X223550Y69249D01*
X222493Y69687D01*
X221858Y69771D01*
D02*
G37*
G36*
X220858D02*
X220224Y69687D01*
X219166Y69249D01*
X218258Y68553D01*
X217562Y67645D01*
X217124Y66587D01*
X217040Y65953D01*
X220858D01*
Y69771D01*
D02*
G37*
G36*
X225676Y64953D02*
X221858D01*
Y61135D01*
X222493Y61218D01*
X223550Y61656D01*
X224458Y62353D01*
X225155Y63261D01*
X225593Y64318D01*
X225676Y64953D01*
D02*
G37*
G36*
X220858D02*
X217040D01*
X217124Y64318D01*
X217562Y63261D01*
X218258Y62353D01*
X219166Y61656D01*
X220224Y61218D01*
X220858Y61135D01*
Y64953D01*
D02*
G37*
G36*
X6504Y64091D02*
Y60047D01*
X10744D01*
Y64091D01*
X6504D01*
D02*
G37*
G36*
X177969Y67142D02*
X173335D01*
Y58177D01*
X177969D01*
Y67142D01*
D02*
G37*
G36*
X172335D02*
X167701D01*
Y58177D01*
X172335D01*
Y67142D01*
D02*
G37*
G36*
X75134Y67126D02*
X70500D01*
Y58161D01*
X75134D01*
Y67126D01*
D02*
G37*
G36*
X69500D02*
X64866D01*
Y58161D01*
X69500D01*
Y67126D01*
D02*
G37*
G36*
X130724Y60547D02*
X127370D01*
Y57784D01*
X130724D01*
Y60547D01*
D02*
G37*
G36*
X126370D02*
X123016D01*
Y57784D01*
X126370D01*
Y60547D01*
D02*
G37*
G36*
X116779Y58598D02*
X115000D01*
Y55097D01*
X116779D01*
Y58598D01*
D02*
G37*
G36*
X114000D02*
X112221D01*
Y55097D01*
X114000D01*
Y58598D01*
D02*
G37*
G36*
X10744Y59047D02*
X6504D01*
Y55004D01*
X10744D01*
Y59047D01*
D02*
G37*
G36*
X205217Y126615D02*
X204289Y126493D01*
X203425Y126135D01*
X202683Y125565D01*
X202113Y124823D01*
X201755Y123959D01*
X201633Y123031D01*
X201755Y122104D01*
X202113Y121240D01*
X202683Y120498D01*
X203425Y119928D01*
X204289Y119570D01*
X204299Y119569D01*
Y107860D01*
X196300Y99862D01*
X196101Y99564D01*
X196031Y99213D01*
Y57753D01*
X195651Y57499D01*
X195253Y56903D01*
X195114Y56201D01*
X195253Y55498D01*
X195651Y54903D01*
X196247Y54505D01*
X196949Y54365D01*
X197651Y54505D01*
X198247Y54903D01*
X198644Y55498D01*
X198784Y56201D01*
X198644Y56903D01*
X198247Y57499D01*
X197866Y57753D01*
Y98832D01*
X205865Y106831D01*
X206064Y107129D01*
X206134Y107480D01*
Y119569D01*
X206144Y119570D01*
X207008Y119928D01*
X207750Y120498D01*
X208320Y121240D01*
X208678Y122104D01*
X208800Y123031D01*
X208678Y123959D01*
X208320Y124823D01*
X207750Y125565D01*
X207008Y126135D01*
X206144Y126493D01*
X205217Y126615D01*
D02*
G37*
G36*
X130724Y56783D02*
X127370D01*
Y54020D01*
X130724D01*
Y56783D01*
D02*
G37*
G36*
X126370D02*
X123016D01*
Y54020D01*
X126370D01*
Y56783D01*
D02*
G37*
G36*
X117339Y54543D02*
X115756D01*
Y52961D01*
X117339D01*
Y54543D01*
D02*
G37*
G36*
X6504Y54051D02*
Y49811D01*
X10744D01*
Y54051D01*
X6504D01*
D02*
G37*
G36*
X177969Y57177D02*
X173335D01*
Y48213D01*
X177969D01*
Y57177D01*
D02*
G37*
G36*
X172335D02*
X167701D01*
Y48213D01*
X172335D01*
Y57177D01*
D02*
G37*
G36*
X75134Y57161D02*
X70500D01*
Y48197D01*
X75134D01*
Y57161D01*
D02*
G37*
G36*
X69500D02*
X64866D01*
Y48197D01*
X69500D01*
Y57161D01*
D02*
G37*
G36*
X101394Y46866D02*
X98039D01*
Y44102D01*
X101394D01*
Y46866D01*
D02*
G37*
G36*
X97039D02*
X93685D01*
Y44102D01*
X97039D01*
Y46866D01*
D02*
G37*
G36*
X117339Y43791D02*
X115756D01*
Y42209D01*
X117339D01*
Y43791D01*
D02*
G37*
G36*
X101394Y43102D02*
X98039D01*
Y40339D01*
X101394D01*
Y43102D01*
D02*
G37*
G36*
X97039D02*
X93685D01*
Y40339D01*
X97039D01*
Y43102D01*
D02*
G37*
G36*
X215059Y126615D02*
X214132Y126493D01*
X213267Y126135D01*
X212525Y125565D01*
X211956Y124823D01*
X211598Y123959D01*
X211476Y123031D01*
X211598Y122104D01*
X211956Y121240D01*
X212525Y120498D01*
X213267Y119928D01*
X214132Y119570D01*
X214141Y119569D01*
Y112388D01*
X201123Y99369D01*
X200924Y99072D01*
X200854Y98721D01*
Y55400D01*
X193025Y47571D01*
X183661D01*
X183310Y47501D01*
X183013Y47302D01*
X172061Y36351D01*
X170049D01*
Y39380D01*
X162156D01*
Y31487D01*
X165421D01*
Y25954D01*
X165067Y25600D01*
X164656Y25600D01*
X164156Y25600D01*
X161113D01*
Y24835D01*
X159943D01*
X159808Y25000D01*
X159668Y25702D01*
X159270Y26298D01*
X158675Y26696D01*
X157972Y26835D01*
X157270Y26696D01*
X156675Y26298D01*
X156277Y25702D01*
X156155Y25089D01*
X156138Y25005D01*
X156136Y24998D01*
X156063Y24901D01*
X155939Y24772D01*
X155684Y24714D01*
X155355Y24714D01*
X154855Y24877D01*
Y30033D01*
X155585Y30764D01*
X155784Y31062D01*
X155854Y31413D01*
X155926Y31476D01*
X156102Y31453D01*
X157133Y31588D01*
X158093Y31986D01*
X158917Y32618D01*
X159550Y33443D01*
X159947Y34403D01*
X160083Y35433D01*
X159947Y36463D01*
X159550Y37423D01*
X158917Y38248D01*
X158093Y38880D01*
X157133Y39278D01*
X156102Y39414D01*
X155072Y39278D01*
X154112Y38880D01*
X153288Y38248D01*
X152655Y37423D01*
X152258Y36463D01*
X152122Y35433D01*
X152258Y34403D01*
X152655Y33443D01*
X153288Y32618D01*
X153820Y32210D01*
X153850Y31624D01*
X153288Y31062D01*
X153089Y30765D01*
X153019Y30413D01*
Y24714D01*
X152505D01*
X152090Y24879D01*
X151984Y25143D01*
X151892Y25604D01*
X151495Y26199D01*
X150899Y26597D01*
X150197Y26737D01*
X149749Y26648D01*
X148582Y27814D01*
X148284Y28013D01*
X147933Y28083D01*
X145472D01*
X145121Y28013D01*
X144824Y27814D01*
X142264Y25255D01*
X142066Y24958D01*
X141996Y24606D01*
Y21246D01*
X141642Y20893D01*
X141181Y21139D01*
X141205Y21260D01*
X141066Y21962D01*
X140668Y22558D01*
X140072Y22955D01*
X139370Y23095D01*
X138922Y23006D01*
X136154Y25774D01*
Y28928D01*
X136919D01*
Y31971D01*
X136919Y32293D01*
X136919Y32793D01*
Y35836D01*
X133554D01*
Y35099D01*
X132502D01*
Y36356D01*
X128152D01*
Y32006D01*
X132502D01*
Y33263D01*
X133200D01*
X133554Y32910D01*
X133554Y32471D01*
X133554Y31971D01*
Y28928D01*
X134319D01*
Y25394D01*
X134388Y25043D01*
X134587Y24745D01*
X137624Y21708D01*
X137535Y21260D01*
X137674Y20558D01*
X137744Y20453D01*
X137509Y20012D01*
X121246D01*
X117552Y23707D01*
Y28731D01*
X118316D01*
Y31774D01*
X118316Y32096D01*
X118316Y32596D01*
Y35639D01*
X114951D01*
Y34941D01*
X113915D01*
Y36198D01*
X109565D01*
Y31849D01*
X113915D01*
Y33106D01*
X114598D01*
X114951Y32752D01*
X114951Y32274D01*
X114951Y31774D01*
Y28731D01*
X115716D01*
Y23327D01*
X115786Y22976D01*
X115985Y22678D01*
X120217Y18446D01*
X120365Y18347D01*
X120214Y17847D01*
X118195D01*
X112658Y23384D01*
Y25550D01*
X113915D01*
Y29899D01*
X109565D01*
Y25550D01*
X110822D01*
Y23004D01*
X110892Y22653D01*
X111091Y22355D01*
X117166Y16280D01*
X117464Y16081D01*
X117815Y16012D01*
X163386D01*
X163737Y16081D01*
X164035Y16280D01*
X166987Y19233D01*
X167186Y19531D01*
X167256Y19882D01*
Y22235D01*
X168021D01*
Y25600D01*
X167256D01*
Y31487D01*
X170049D01*
Y34515D01*
X172441D01*
X172792Y34585D01*
X173090Y34784D01*
X184042Y45736D01*
X193405D01*
X193757Y45806D01*
X194054Y46005D01*
X202420Y54371D01*
X202619Y54668D01*
X202689Y55020D01*
Y98340D01*
X215708Y111359D01*
X215907Y111657D01*
X215977Y112008D01*
Y119569D01*
X215986Y119570D01*
X216851Y119928D01*
X217593Y120498D01*
X218162Y121240D01*
X218520Y122104D01*
X218642Y123031D01*
X218520Y123959D01*
X218162Y124823D01*
X217593Y125565D01*
X216851Y126135D01*
X215986Y126493D01*
X215059Y126615D01*
D02*
G37*
G36*
X10744Y39362D02*
X6504D01*
Y35122D01*
X10744D01*
Y39362D01*
D02*
G37*
G36*
X187402Y37472D02*
Y33654D01*
X191220D01*
X191136Y34288D01*
X190698Y35346D01*
X190001Y36253D01*
X189094Y36950D01*
X188036Y37388D01*
X187402Y37472D01*
D02*
G37*
G36*
X186402D02*
X185767Y37388D01*
X184710Y36950D01*
X183802Y36253D01*
X183105Y35346D01*
X182667Y34288D01*
X182583Y33654D01*
X186402D01*
Y37472D01*
D02*
G37*
G36*
X20193Y38969D02*
X16535D01*
X12878D01*
Y37681D01*
X12447Y37516D01*
X11894D01*
Y32882D01*
X16043D01*
Y32382D01*
D01*
Y32882D01*
X20193D01*
Y37181D01*
X20193Y37681D01*
X20193Y38016D01*
Y38969D01*
D02*
G37*
G36*
X6504Y34169D02*
Y30126D01*
X10744D01*
Y34169D01*
X6504D01*
D02*
G37*
G36*
X191220Y32653D02*
X187402D01*
Y28835D01*
X188036Y28919D01*
X189094Y29357D01*
X190001Y30054D01*
X190698Y30962D01*
X191136Y32019D01*
X191220Y32653D01*
D02*
G37*
G36*
X186402D02*
X182583D01*
X182667Y32019D01*
X183105Y30962D01*
X183802Y30054D01*
X184710Y29357D01*
X185767Y28919D01*
X186402Y28835D01*
Y32653D01*
D02*
G37*
G36*
X132902Y30457D02*
X130827D01*
Y28382D01*
X132902D01*
Y30457D01*
D02*
G37*
G36*
X129827D02*
X127752D01*
Y28382D01*
X129827D01*
Y30457D01*
D02*
G37*
G36*
X94087Y29866D02*
X92012D01*
Y27791D01*
X94087D01*
Y29866D01*
D02*
G37*
G36*
X91012D02*
X88937D01*
Y27791D01*
X91012D01*
Y29866D01*
D02*
G37*
G36*
X34957Y29839D02*
X32882D01*
Y27764D01*
X34957D01*
Y29839D01*
D02*
G37*
G36*
X31882D02*
X29807D01*
Y27764D01*
X31882D01*
Y29839D01*
D02*
G37*
G36*
X20193Y31882D02*
X16543D01*
Y27248D01*
X20193D01*
Y31882D01*
D02*
G37*
G36*
X15543D02*
X11894D01*
Y27248D01*
X15543D01*
Y31882D01*
D02*
G37*
G36*
X132902Y27382D02*
X130827D01*
Y25307D01*
X132902D01*
Y27382D01*
D02*
G37*
G36*
X129827D02*
X127752D01*
Y25307D01*
X129827D01*
Y27382D01*
D02*
G37*
G36*
X94087Y26791D02*
X92012D01*
Y24716D01*
X94087D01*
Y26791D01*
D02*
G37*
G36*
X91012D02*
X88937D01*
Y24716D01*
X91012D01*
Y26791D01*
D02*
G37*
G36*
X34957Y26764D02*
X32882D01*
Y24689D01*
X34957D01*
Y26764D01*
D02*
G37*
G36*
X31882D02*
X29807D01*
Y24689D01*
X31882D01*
Y26764D01*
D02*
G37*
G36*
X155718Y14872D02*
X152156D01*
Y8947D01*
X155718D01*
Y9822D01*
X155905Y9976D01*
X156608Y10115D01*
X157203Y10513D01*
X157601Y11109D01*
X157741Y11811D01*
X157601Y12513D01*
X157203Y13109D01*
X156608Y13507D01*
X155905Y13646D01*
X155718Y13800D01*
Y14872D01*
D02*
G37*
G36*
X93687Y35765D02*
X89337D01*
Y31416D01*
X93687D01*
Y32673D01*
X94322D01*
X94676Y32319D01*
Y32077D01*
X94676Y31577D01*
Y28534D01*
X95441D01*
Y25492D01*
X95511Y25141D01*
X95709Y24843D01*
X109292Y11261D01*
X109590Y11062D01*
X109941Y10992D01*
X144676D01*
Y8947D01*
X148238D01*
Y14872D01*
X144676D01*
Y12827D01*
X110321D01*
X97276Y25872D01*
Y28534D01*
X98041D01*
Y31577D01*
X98041Y31899D01*
X98041Y32399D01*
Y35443D01*
X94676D01*
Y34508D01*
X93687D01*
Y35765D01*
D02*
G37*
%LPD*%
G36*
X102362Y132315D02*
X100437D01*
Y121276D01*
Y110236D01*
X102362D01*
Y76968D01*
X101779D01*
Y79953D01*
X99500D01*
X97220D01*
Y76968D01*
X62697D01*
Y48425D01*
X20193D01*
Y49205D01*
X16535D01*
Y49705D01*
X16035D01*
Y51492D01*
X13681D01*
Y52057D01*
X19793D01*
Y54901D01*
X19980Y55054D01*
X20683Y55194D01*
X21278Y55592D01*
X21676Y56187D01*
X21816Y56890D01*
X21676Y57592D01*
X21278Y58188D01*
X20683Y58585D01*
X19980Y58725D01*
X19793Y58879D01*
Y61525D01*
X13681D01*
Y125492D01*
X24845D01*
X25527Y124932D01*
X27170Y124054D01*
X28953Y123513D01*
X30807Y123331D01*
X32661Y123513D01*
X34444Y124054D01*
X36087Y124932D01*
X36769Y125492D01*
X66732D01*
Y154232D01*
X102362D01*
Y132315D01*
D02*
G37*
%LPC*%
G36*
X76945Y151295D02*
X73098D01*
Y147449D01*
X76945D01*
Y151295D01*
D02*
G37*
G36*
X72098D02*
X68252D01*
Y147449D01*
X72098D01*
Y151295D01*
D02*
G37*
G36*
X76945Y146449D02*
X73098D01*
Y142602D01*
X76945D01*
Y146449D01*
D02*
G37*
G36*
X72098D02*
X68252D01*
Y142602D01*
X72098D01*
Y146449D01*
D02*
G37*
G36*
X76910Y137689D02*
X73063D01*
Y133843D01*
X76910D01*
Y137689D01*
D02*
G37*
G36*
X72063D02*
X68217D01*
Y133843D01*
X72063D01*
Y137689D01*
D02*
G37*
G36*
X76910Y132843D02*
X73063D01*
Y128996D01*
X76910D01*
Y132843D01*
D02*
G37*
G36*
X72063D02*
X68217D01*
Y128996D01*
X72063D01*
Y132843D01*
D02*
G37*
G36*
X99437Y132315D02*
X92441D01*
Y121776D01*
X99437D01*
Y132315D01*
D02*
G37*
G36*
X41976Y124669D02*
Y121248D01*
X45397D01*
X45327Y121780D01*
X44929Y122741D01*
X44295Y123567D01*
X43470Y124201D01*
X42508Y124599D01*
X41976Y124669D01*
D02*
G37*
G36*
X40976D02*
X40444Y124599D01*
X39483Y124201D01*
X38657Y123567D01*
X38024Y122741D01*
X37625Y121780D01*
X37555Y121248D01*
X40976D01*
Y124669D01*
D02*
G37*
G36*
X45397Y120248D02*
X41976D01*
Y116827D01*
X42508Y116897D01*
X43470Y117295D01*
X44295Y117929D01*
X44929Y118755D01*
X45327Y119716D01*
X45397Y120248D01*
D02*
G37*
G36*
X40976D02*
X37555D01*
X37625Y119716D01*
X38024Y118755D01*
X38657Y117929D01*
X39483Y117295D01*
X40444Y116897D01*
X40976Y116827D01*
Y120248D01*
D02*
G37*
G36*
X99437Y120776D02*
X92441D01*
Y110236D01*
X99437D01*
Y120776D01*
D02*
G37*
G36*
X41476Y114489D02*
X40549Y114367D01*
X39685Y114009D01*
X38943Y113439D01*
X38373Y112697D01*
X38015Y111833D01*
X37893Y110906D01*
X38015Y109978D01*
X38373Y109114D01*
X38943Y108372D01*
X39685Y107802D01*
X40549Y107444D01*
X41476Y107322D01*
X42404Y107444D01*
X43268Y107802D01*
X44010Y108372D01*
X44580Y109114D01*
X44938Y109978D01*
X45060Y110906D01*
X44938Y111833D01*
X44580Y112697D01*
X44010Y113439D01*
X43268Y114009D01*
X42404Y114367D01*
X41476Y114489D01*
D02*
G37*
G36*
Y106615D02*
X40549Y106493D01*
X39685Y106135D01*
X38943Y105565D01*
X38373Y104823D01*
X38015Y103959D01*
X37893Y103032D01*
X38015Y102104D01*
X38373Y101240D01*
X38943Y100498D01*
X39685Y99928D01*
X40549Y99570D01*
X41476Y99448D01*
X42404Y99570D01*
X43268Y99928D01*
X44010Y100498D01*
X44580Y101240D01*
X44938Y102104D01*
X45060Y103032D01*
X44938Y103959D01*
X44580Y104823D01*
X44010Y105565D01*
X43268Y106135D01*
X42404Y106493D01*
X41476Y106615D01*
D02*
G37*
G36*
X75134Y103740D02*
X70500D01*
Y94776D01*
X75134D01*
Y103740D01*
D02*
G37*
G36*
X69500D02*
X64866D01*
Y94776D01*
X69500D01*
Y103740D01*
D02*
G37*
G36*
X41476Y96772D02*
X40549Y96650D01*
X39685Y96292D01*
X38943Y95723D01*
X38373Y94981D01*
X38015Y94116D01*
X37893Y93189D01*
X38015Y92261D01*
X38373Y91397D01*
X38943Y90655D01*
X39685Y90086D01*
X40549Y89728D01*
X41476Y89606D01*
X42404Y89728D01*
X43268Y90086D01*
X44010Y90655D01*
X44580Y91397D01*
X44938Y92261D01*
X45060Y93189D01*
X44938Y94116D01*
X44580Y94981D01*
X44010Y95723D01*
X43268Y96292D01*
X42404Y96650D01*
X41476Y96772D01*
D02*
G37*
G36*
X99008Y88736D02*
X97405D01*
Y88336D01*
X94467D01*
X93898Y88449D01*
X93195Y88310D01*
X92600Y87912D01*
X92202Y87317D01*
X92062Y86614D01*
X92202Y85912D01*
X92600Y85316D01*
X93195Y84919D01*
X93568Y84844D01*
X94026Y84695D01*
Y84695D01*
X94026Y84695D01*
X96820D01*
X97220Y84455D01*
Y80953D01*
X99500D01*
X101779D01*
Y84455D01*
X101610D01*
Y86016D01*
X99508D01*
Y86516D01*
X99008D01*
Y88736D01*
D02*
G37*
G36*
X101610D02*
X100008D01*
Y87016D01*
X101610D01*
Y88736D01*
D02*
G37*
G36*
X75134Y93776D02*
X70500D01*
Y84811D01*
X75134D01*
Y93776D01*
D02*
G37*
G36*
X69500D02*
X64866D01*
Y84811D01*
X69500D01*
Y93776D01*
D02*
G37*
G36*
X30807Y90606D02*
X28953Y90424D01*
X27170Y89883D01*
X25527Y89005D01*
X24087Y87823D01*
X22905Y86383D01*
X22027Y84739D01*
X21486Y82956D01*
X21303Y81102D01*
X21486Y79248D01*
X22027Y77465D01*
X22905Y75822D01*
X24087Y74382D01*
X25527Y73200D01*
X27170Y72322D01*
X28953Y71781D01*
X30807Y71598D01*
X32661Y71781D01*
X34444Y72322D01*
X36087Y73200D01*
X37527Y74382D01*
X38709Y75822D01*
X39588Y77465D01*
X40128Y79248D01*
X40311Y81102D01*
X40128Y82956D01*
X39588Y84739D01*
X38709Y86383D01*
X37527Y87823D01*
X36087Y89005D01*
X34444Y89883D01*
X32661Y90424D01*
X30807Y90606D01*
D02*
G37*
G36*
X33520Y61236D02*
X29673D01*
Y57390D01*
X33520D01*
Y61236D01*
D02*
G37*
G36*
X28673D02*
X24827D01*
Y57390D01*
X28673D01*
Y61236D01*
D02*
G37*
G36*
X39173Y60870D02*
X38143Y60735D01*
X37183Y60337D01*
X36359Y59704D01*
X35726Y58880D01*
X35328Y57920D01*
X35193Y56890D01*
X35328Y55860D01*
X35726Y54900D01*
X36359Y54075D01*
X37183Y53443D01*
X38143Y53045D01*
X39173Y52909D01*
X40203Y53045D01*
X41164Y53443D01*
X41988Y54075D01*
X42620Y54900D01*
X43018Y55860D01*
X43154Y56890D01*
X43018Y57920D01*
X42620Y58880D01*
X41988Y59704D01*
X41164Y60337D01*
X40203Y60735D01*
X39173Y60870D01*
D02*
G37*
G36*
X33520Y56390D02*
X29673D01*
Y52543D01*
X33520D01*
Y56390D01*
D02*
G37*
G36*
X28673D02*
X24827D01*
Y52543D01*
X28673D01*
Y56390D01*
D02*
G37*
G36*
X20193Y51492D02*
X17035D01*
Y50205D01*
X20193D01*
Y51492D01*
D02*
G37*
%LPD*%
G36*
X158268Y77854D02*
X148354D01*
Y78484D01*
X146547D01*
Y79484D01*
X148354D01*
Y79559D01*
Y81043D01*
X146547D01*
Y82043D01*
X148354D01*
Y82118D01*
Y83602D01*
X146547D01*
Y84602D01*
X148354D01*
Y84677D01*
Y86161D01*
X146547D01*
Y86661D01*
X146340D01*
Y88246D01*
X146047D01*
Y88646D01*
X145571D01*
Y105217D01*
X135531D01*
Y110236D01*
X141563D01*
Y121276D01*
X142063D01*
Y121776D01*
X149559D01*
Y131693D01*
X158268D01*
Y77854D01*
D02*
G37*
%LPC*%
G36*
X157555Y114681D02*
X154417D01*
Y110638D01*
X157555D01*
Y114681D01*
D02*
G37*
G36*
X153417D02*
X150279D01*
Y110638D01*
X153417D01*
Y114681D01*
D02*
G37*
G36*
X149559Y120776D02*
X142563D01*
Y110236D01*
X149559D01*
Y120776D01*
D02*
G37*
G36*
X157555Y109638D02*
X154417D01*
Y105595D01*
X157555D01*
Y109638D01*
D02*
G37*
G36*
X153417D02*
X150279D01*
Y105595D01*
X153417D01*
Y109638D01*
D02*
G37*
G36*
X148354Y88646D02*
X147047D01*
Y87161D01*
X148354D01*
Y88646D01*
D02*
G37*
%LPD*%
G36*
X132575Y87161D02*
X134815D01*
Y86161D01*
X132575D01*
Y84677D01*
Y84602D01*
X134815D01*
Y83602D01*
X132575D01*
Y82118D01*
Y82043D01*
X134815D01*
Y81043D01*
X132575D01*
Y80512D01*
X131473D01*
Y83776D01*
X128405D01*
Y84776D01*
X131473D01*
Y87795D01*
X132575D01*
Y87161D01*
D02*
G37*
G36*
X156269Y24335D02*
X156277Y24298D01*
X156675Y23702D01*
X157270Y23304D01*
X157972Y23165D01*
X158426Y23255D01*
X158704Y23069D01*
X159055Y23000D01*
X161113D01*
Y22235D01*
X164156D01*
X164478Y22235D01*
X165067Y22235D01*
X165421Y21881D01*
Y20262D01*
X163006Y17847D01*
X141794D01*
X141643Y18347D01*
X141791Y18446D01*
X143562Y20217D01*
X143761Y20515D01*
X143776Y20587D01*
X144276Y20538D01*
Y18390D01*
X145957D01*
Y21752D01*
X146957D01*
Y18390D01*
X148638D01*
Y18790D01*
X151656D01*
X151978Y18790D01*
X152478Y18790D01*
X155718D01*
Y24138D01*
X155936Y24299D01*
X156218Y24377D01*
X156269Y24335D01*
D02*
G37*
D12*
X132087Y74902D02*
X132431Y75246D01*
Y76856D01*
X134559Y78984D01*
X134815D01*
X105709Y43602D02*
X106398Y44291D01*
X111713D01*
X159055Y23917D02*
X162795D01*
X116634Y23327D02*
X120866Y19094D01*
X141142D01*
X142913Y20866D01*
Y24606D01*
X145472Y27165D01*
X147933D01*
X150197Y24902D01*
X157972Y25000D02*
X159055Y23917D01*
X150197Y21752D02*
Y24902D01*
X104528Y90059D02*
X106201D01*
X104528Y90059D02*
X104528Y90059D01*
X93898Y86614D02*
X95630D01*
X95728Y86516D01*
X99410Y59189D02*
Y63386D01*
Y59189D02*
X99500Y59098D01*
X99410Y63386D02*
X100197Y64173D01*
X126870D01*
X30118Y27264D02*
X32382D01*
X32283Y33465D02*
X32382Y33563D01*
X27165Y33465D02*
X32283D01*
X116634Y23327D02*
Y30413D01*
X175803Y25803D02*
X189551D01*
X157480Y7480D02*
X175803Y25803D01*
X139370Y7480D02*
X157480D01*
X189551Y25803D02*
X196902Y33154D01*
X111122Y74705D02*
X124803D01*
X109500Y76327D02*
X111122Y74705D01*
X109500Y76327D02*
Y80453D01*
X127854Y27854D02*
X130299D01*
X130327Y27882D01*
X96189Y33591D02*
X96358Y33760D01*
X91512Y33591D02*
X96189D01*
X166102Y35433D02*
X172441D01*
X115256Y48376D02*
X135187D01*
X138386Y51575D01*
Y63386D01*
X146260Y71260D01*
X163189D01*
X172835Y80905D01*
Y94291D01*
X115256Y44291D02*
X117028D01*
X97441Y40650D02*
Y43504D01*
X97539Y43602D01*
X114642Y58957D02*
X116535D01*
X114500Y59098D02*
X114642Y58957D01*
X115256Y52461D02*
X117126D01*
X115256Y52461D02*
X115256Y52461D01*
X123425Y57382D02*
X126772D01*
X126870Y57284D01*
X97539Y50492D02*
X97539Y50492D01*
X105709D01*
X104626Y55315D02*
Y58972D01*
X104500Y59098D02*
X104626Y58972D01*
Y55315D02*
X105709Y54232D01*
Y50492D02*
Y54232D01*
X109500Y54673D02*
Y59098D01*
Y54673D02*
X111713Y52461D01*
Y48376D02*
Y52461D01*
X89370Y27264D02*
X91484D01*
X91512Y27291D01*
X114469Y80484D02*
Y84153D01*
Y80484D02*
X114500Y80453D01*
X128347Y84216D02*
X128405Y84276D01*
X128347Y74213D02*
Y84216D01*
X126772Y64272D02*
Y69095D01*
Y64272D02*
X126870Y64173D01*
X126772Y69095D02*
X128347Y70669D01*
X104500Y86488D02*
X104528Y86516D01*
X104500Y80453D02*
Y86488D01*
X166102Y35433D02*
X166339Y35197D01*
Y23917D02*
Y35197D01*
X146457Y21752D02*
Y24803D01*
X135236Y25394D02*
Y30610D01*
Y25394D02*
X139370Y21260D01*
X135209Y34181D02*
X135236Y34154D01*
X130327Y34181D02*
X135209D01*
X116567Y34024D02*
X116634Y33957D01*
X111740Y34024D02*
X116567D01*
X163386Y16929D02*
X166339Y19882D01*
Y23917D01*
X117815Y16929D02*
X163386D01*
X111740Y23004D02*
X117815Y16929D01*
X111740Y23004D02*
Y27724D01*
X96358Y25492D02*
Y30217D01*
Y25492D02*
X109941Y11909D01*
X146457D01*
X153937Y30413D02*
X154937Y31413D01*
Y34267D01*
X156102Y35433D01*
X153937Y21752D02*
Y30413D01*
X196949Y99213D02*
X205217Y107480D01*
X196949Y56201D02*
Y99213D01*
X201772Y98721D02*
X215059Y112008D01*
X201772Y55020D02*
Y98721D01*
X193405Y46654D02*
X201772Y55020D01*
X205217Y107480D02*
Y123031D01*
X215059Y112008D02*
Y123031D01*
X183661Y46654D02*
X193405D01*
X172441Y35433D02*
X183661Y46654D01*
D15*
X26969Y50591D02*
X27165Y50394D01*
Y37008D02*
Y50394D01*
X35827Y37008D02*
X68405Y4429D01*
X27165Y37008D02*
X35827D01*
X68405Y4429D02*
X158465D01*
X165748Y11713D01*
X185461D01*
X206902Y33154D01*
Y50406D02*
X211358Y54862D01*
Y65453D01*
X206902Y33154D02*
Y50406D01*
D18*
X6004Y39862D02*
D03*
Y49311D02*
D03*
D19*
Y29626D02*
D03*
Y59547D02*
D03*
D20*
X16535Y44587D02*
D03*
Y47146D02*
D03*
Y49705D02*
D03*
Y42028D02*
D03*
Y39469D02*
D03*
D21*
X16043Y56791D02*
D03*
Y32382D02*
D03*
D22*
X142000Y82823D02*
D03*
D23*
X146547Y86661D02*
D03*
Y84102D02*
D03*
Y81543D02*
D03*
Y78984D02*
D03*
D24*
X134815D02*
D03*
Y81543D02*
D03*
Y84102D02*
D03*
Y86661D02*
D03*
D25*
X27165Y33465D02*
D03*
Y37008D02*
D03*
X128347Y70669D02*
D03*
Y74213D02*
D03*
X116634Y33957D02*
D03*
Y30413D02*
D03*
X104528Y90059D02*
D03*
Y86516D02*
D03*
X96358Y33760D02*
D03*
Y30217D02*
D03*
X135236Y34154D02*
D03*
Y30610D02*
D03*
D26*
X142063Y121276D02*
D03*
X99937D02*
D03*
D27*
X32382Y27264D02*
D03*
Y33563D02*
D03*
X91512Y33591D02*
D03*
Y27291D02*
D03*
X130327Y34181D02*
D03*
Y27882D02*
D03*
X111740Y34024D02*
D03*
Y27724D02*
D03*
D28*
X97539Y43602D02*
D03*
Y50492D02*
D03*
X105709Y50492D02*
D03*
Y43602D02*
D03*
X126870Y64173D02*
D03*
Y57284D02*
D03*
D29*
X153937Y11909D02*
D03*
X146457D02*
D03*
Y21752D02*
D03*
X150197D02*
D03*
X153937D02*
D03*
D30*
X115256Y44291D02*
D03*
X111713D02*
D03*
Y48376D02*
D03*
X115256D02*
D03*
Y52461D02*
D03*
X111713D02*
D03*
X166339Y23917D02*
D03*
X162795D02*
D03*
D31*
X122500Y84276D02*
D03*
X128405D02*
D03*
D32*
X172835Y94291D02*
D03*
Y57677D02*
D03*
X70000Y94276D02*
D03*
Y57661D02*
D03*
D33*
X99500Y59098D02*
D03*
X104500D02*
D03*
X109500D02*
D03*
X114500D02*
D03*
Y80453D02*
D03*
X109500D02*
D03*
X104500D02*
D03*
X99500D02*
D03*
D34*
X95728Y86516D02*
D03*
X99508D02*
D03*
D35*
X153917Y110138D02*
D03*
X165177D02*
D03*
D59*
X16043Y32382D02*
Y39431D01*
X16081Y39469D01*
X16535D01*
D60*
X6004Y49311D02*
Y59547D01*
Y39862D02*
Y49311D01*
Y29626D02*
Y39862D01*
D61*
X185705Y123205D02*
Y127831D01*
X185531Y123031D02*
X185705Y123205D01*
Y127831D02*
X190551Y132677D01*
X217421D01*
X223228Y126870D01*
Y111221D02*
Y126870D01*
X211358Y99350D02*
X223228Y111221D01*
X211358Y85925D02*
Y99350D01*
X165315Y110276D02*
Y119449D01*
X165177Y110138D02*
X165315Y110276D01*
Y119449D02*
X168898Y123031D01*
X185531D01*
X171201Y95925D02*
X172835Y94291D01*
X171201Y95925D02*
Y103209D01*
X165177Y109232D02*
X171201Y103209D01*
X165177Y109232D02*
Y110138D01*
D62*
X41476Y120748D02*
D03*
Y110906D02*
D03*
Y103032D02*
D03*
Y93189D02*
D03*
X185531Y123031D02*
D03*
X195374D02*
D03*
X205217D02*
D03*
X215059D02*
D03*
D63*
X30807Y132835D02*
D03*
Y81102D02*
D03*
D64*
X39173Y56890D02*
D03*
X62598Y146949D02*
D03*
X62563Y133343D02*
D03*
X221358Y65453D02*
D03*
X196902Y33154D02*
D03*
X186902D02*
D03*
X156102Y35433D02*
D03*
X221358Y85925D02*
D03*
D65*
X29173Y56890D02*
D03*
X72598Y146949D02*
D03*
X72563Y133343D02*
D03*
X211358Y65453D02*
D03*
X206902Y33154D02*
D03*
X166102Y35433D02*
D03*
X211358Y85925D02*
D03*
D66*
X132087Y74902D02*
D03*
X224803Y102657D02*
D03*
Y79035D02*
D03*
Y55413D02*
D03*
Y31791D02*
D03*
X212992Y79035D02*
D03*
X218898Y43602D02*
D03*
X212992Y31791D02*
D03*
X207086Y161713D02*
D03*
X201181Y149901D02*
D03*
X207086Y138091D02*
D03*
X201181Y126279D02*
D03*
Y8169D02*
D03*
X195275Y161713D02*
D03*
X189370Y149901D02*
D03*
X195275Y138091D02*
D03*
Y114468D02*
D03*
X189370Y102657D02*
D03*
Y79035D02*
D03*
Y55413D02*
D03*
Y8169D02*
D03*
X183465Y161713D02*
D03*
X177559Y149901D02*
D03*
X183465Y138091D02*
D03*
Y114468D02*
D03*
Y90846D02*
D03*
X177559Y79035D02*
D03*
X183465Y67224D02*
D03*
X177559Y31791D02*
D03*
X183465Y19980D02*
D03*
X177559Y8169D02*
D03*
X171653Y161713D02*
D03*
X165748Y149901D02*
D03*
X171653Y138091D02*
D03*
X165748Y126279D02*
D03*
X171653Y114468D02*
D03*
X165748Y79035D02*
D03*
X171653Y43602D02*
D03*
X165748Y8169D02*
D03*
X159842Y161713D02*
D03*
X153937Y149901D02*
D03*
X159842Y138091D02*
D03*
Y67224D02*
D03*
X153937Y55413D02*
D03*
X159842Y43602D02*
D03*
Y19980D02*
D03*
X148031Y161713D02*
D03*
X142126Y149901D02*
D03*
X148031Y138091D02*
D03*
X142126Y102657D02*
D03*
X148031Y67224D02*
D03*
X142126Y55413D02*
D03*
X148031Y43602D02*
D03*
X142126Y31791D02*
D03*
X136220Y161713D02*
D03*
X130315Y149901D02*
D03*
X136220Y138091D02*
D03*
X130315Y126279D02*
D03*
Y102657D02*
D03*
X136220Y90846D02*
D03*
Y67224D02*
D03*
Y43602D02*
D03*
X130315Y8169D02*
D03*
X124409Y161713D02*
D03*
X118504Y149901D02*
D03*
X124409Y138091D02*
D03*
X118504Y126279D02*
D03*
X124409Y114468D02*
D03*
X118504Y102657D02*
D03*
X124409Y43602D02*
D03*
X118504Y8169D02*
D03*
X112598Y161713D02*
D03*
X106693Y149901D02*
D03*
X112598Y138091D02*
D03*
Y114468D02*
D03*
X106693Y102657D02*
D03*
X112598Y90846D02*
D03*
Y67224D02*
D03*
X106693Y31791D02*
D03*
Y8169D02*
D03*
X100787Y161713D02*
D03*
Y67224D02*
D03*
X94882Y55413D02*
D03*
Y8169D02*
D03*
X88976Y161713D02*
D03*
Y67224D02*
D03*
X83071Y55413D02*
D03*
X88976Y43602D02*
D03*
X83071Y31791D02*
D03*
X88976Y19980D02*
D03*
X83071Y8169D02*
D03*
X77165Y161713D02*
D03*
Y67224D02*
D03*
Y43602D02*
D03*
X71260Y31791D02*
D03*
X77165Y19980D02*
D03*
X71260Y8169D02*
D03*
X65354Y161713D02*
D03*
Y43602D02*
D03*
X59449Y31791D02*
D03*
X65354Y19980D02*
D03*
X59449Y8169D02*
D03*
X53543Y161713D02*
D03*
X47638Y149901D02*
D03*
X53543Y138091D02*
D03*
Y43602D02*
D03*
X47638Y31791D02*
D03*
Y8169D02*
D03*
X41732Y161713D02*
D03*
X35827Y149901D02*
D03*
X41732Y138091D02*
D03*
Y43602D02*
D03*
X35827Y31791D02*
D03*
X41732Y19980D02*
D03*
X35827Y8169D02*
D03*
X29921Y161713D02*
D03*
Y43602D02*
D03*
X24016Y31791D02*
D03*
X29921Y19980D02*
D03*
X157972Y25000D02*
D03*
X150197Y24902D02*
D03*
X106201Y90059D02*
D03*
X93898Y86614D02*
D03*
X19980Y32382D02*
D03*
Y56890D02*
D03*
X30118Y27264D02*
D03*
X165748Y11713D02*
D03*
X155905Y11811D02*
D03*
X124803Y74705D02*
D03*
X127854Y27854D02*
D03*
X177657Y56299D02*
D03*
X177559Y59744D02*
D03*
X168012Y56299D02*
D03*
Y59842D02*
D03*
X74803Y57087D02*
D03*
Y60433D02*
D03*
X65256Y56890D02*
D03*
Y60433D02*
D03*
X117028Y44291D02*
D03*
X97441Y40650D02*
D03*
X119783Y81791D02*
D03*
Y89173D02*
D03*
X119685Y85433D02*
D03*
X116535Y58957D02*
D03*
X117126Y52461D02*
D03*
X123425Y57382D02*
D03*
X89370Y27264D02*
D03*
X114469Y84153D02*
D03*
X146457Y24803D02*
D03*
X139370Y21260D02*
D03*
Y7480D02*
D03*
X196949Y56201D02*
D03*
D67*
X5906Y25295D02*
D03*
Y63779D02*
D03*
M02*
