G04*
G04 #@! TF.GenerationSoftware,Altium Limited,Altium Designer,19.1.9 (167)*
G04*
G04 Layer_Color=65535*
%FSLAX25Y25*%
%MOIN*%
G70*
G01*
G75*
%ADD10C,0.00787*%
%ADD11C,0.00598*%
%ADD12C,0.00600*%
%ADD13C,0.00400*%
%ADD14C,0.00800*%
%ADD15C,0.01000*%
%ADD16C,0.00700*%
%ADD17C,0.00701*%
D10*
X132291Y88189D02*
G03*
X132291Y88189I-106J0D01*
G01*
X133968Y76327D02*
X146961D01*
X133968Y89319D02*
X146961D01*
X23173Y57890D02*
Y62890D01*
X45173D01*
Y50890D02*
Y62890D01*
X23173Y50890D02*
X45173D01*
X56598Y152949D02*
X78598D01*
X56598Y140949D02*
Y152949D01*
Y140949D02*
X78598D01*
Y145949D01*
X96000Y96276D02*
X146000D01*
X96000Y146276D02*
X146000D01*
X56563Y139342D02*
X78563D01*
X56563Y127342D02*
Y139342D01*
Y127342D02*
X78563D01*
Y132343D01*
X31201Y24508D02*
X33563D01*
X156102Y19390D02*
Y24114D01*
X144488Y18012D02*
X155905D01*
X144488Y15650D02*
Y18012D01*
Y15650D02*
X155905D01*
Y18012D01*
X90331Y24535D02*
X92693D01*
X129146Y25126D02*
X131508D01*
X110559Y24969D02*
X112921D01*
X182835Y96484D02*
X193335Y85984D01*
X193110Y55709D02*
X193335Y85984D01*
X152559Y55709D02*
Y86122D01*
X162835Y96484D01*
X97354Y63476D02*
Y76075D01*
X116646D01*
Y63476D02*
Y76075D01*
X97354Y63476D02*
X116646D01*
X96842Y56094D02*
Y62098D01*
X80000Y96469D02*
X90500Y85969D01*
X90276Y55693D02*
X90500Y85969D01*
X49724Y55693D02*
Y86106D01*
X60000Y96469D01*
X205358Y66453D02*
Y71453D01*
X227358D01*
Y59453D02*
Y71453D01*
X205358Y59453D02*
X227358D01*
X212902Y27154D02*
Y32153D01*
X180902Y27154D02*
X212902D01*
X180902D02*
Y39154D01*
X212902D01*
X172102Y29433D02*
Y34433D01*
X150102Y29433D02*
X172102D01*
X150102D02*
Y41433D01*
X172102D01*
X205358Y86925D02*
Y91925D01*
X227358D01*
Y79925D02*
Y91925D01*
X205358Y79925D02*
X227358D01*
D11*
X25492Y13484D02*
G03*
X25492Y13484I-12008J0D01*
G01*
X228839D02*
G03*
X228839Y13484I-12008J0D01*
G01*
Y150787D02*
G03*
X228839Y150787I-12008J0D01*
G01*
X25492D02*
G03*
X25492Y150787I-12008J0D01*
G01*
D12*
X3189Y82165D02*
X15295D01*
X3189Y131772D02*
X15295D01*
X42264Y82165D02*
X45453D01*
X42264Y131772D02*
X45453D01*
Y82165D02*
Y131772D01*
D13*
X175689Y135630D02*
X224902D01*
X175689Y110433D02*
X224902D01*
X175689D02*
Y135630D01*
X224902Y110433D02*
Y135630D01*
D14*
X169291Y146161D02*
Y149310D01*
X170866D01*
X171390Y148785D01*
Y147736D01*
X170866Y147211D01*
X169291D01*
X170341D02*
X171390Y146161D01*
X172440Y148785D02*
X172965Y149310D01*
X174014D01*
X174539Y148785D01*
Y146686D01*
X174014Y146161D01*
X172965D01*
X172440Y146686D01*
Y148785D01*
X175589Y146161D02*
Y146686D01*
X176113D01*
Y146161D01*
X175589D01*
X178212Y148785D02*
X178737Y149310D01*
X179787D01*
X180311Y148785D01*
Y146686D01*
X179787Y146161D01*
X178737D01*
X178212Y146686D01*
Y148785D01*
X181361D02*
X181886Y149310D01*
X182935D01*
X183460Y148785D01*
Y146686D01*
X182935Y146161D01*
X181886D01*
X181361Y146686D01*
Y148785D01*
X28051Y20177D02*
X25296D01*
Y21555D01*
X25755Y22014D01*
X26674D01*
X27133Y21555D01*
Y20177D01*
Y21095D02*
X28051Y22014D01*
Y22932D02*
Y23851D01*
Y23391D01*
X25296D01*
X25755Y22932D01*
Y25228D02*
X25296Y25687D01*
Y26605D01*
X25755Y27065D01*
X27592D01*
X28051Y26605D01*
Y25687D01*
X27592Y25228D01*
X25755D01*
Y27983D02*
X25296Y28442D01*
Y29361D01*
X25755Y29820D01*
X26215D01*
X26674Y29361D01*
X27133Y29820D01*
X27592D01*
X28051Y29361D01*
Y28442D01*
X27592Y27983D01*
X27133D01*
X26674Y28442D01*
X26215Y27983D01*
X25755D01*
X26674Y28442D02*
Y29361D01*
X37009Y23130D02*
X39764D01*
Y24967D01*
X37009Y27722D02*
Y25885D01*
X39764D01*
Y27722D01*
X38386Y25885D02*
Y26803D01*
X37009Y28640D02*
X39764D01*
Y30018D01*
X39305Y30477D01*
X37468D01*
X37009Y30018D01*
Y28640D01*
X39764Y31395D02*
Y32313D01*
Y31854D01*
X37009D01*
X37468Y31395D01*
Y33691D02*
X37009Y34150D01*
Y35068D01*
X37468Y35528D01*
X39305D01*
X39764Y35068D01*
Y34150D01*
X39305Y33691D01*
X37468D01*
X39764Y36446D02*
Y37364D01*
Y36905D01*
X37009D01*
X37468Y36446D01*
D15*
X159350Y157085D02*
Y152165D01*
Y154625D01*
X162630D01*
Y157085D01*
Y152165D01*
X167550Y157085D02*
X164270D01*
Y152165D01*
X167550D01*
X164270Y154625D02*
X165910D01*
X169190D02*
X172469D01*
X174109Y157085D02*
Y152985D01*
X174929Y152165D01*
X176569D01*
X177389Y152985D01*
Y157085D01*
X182309Y156265D02*
X181489Y157085D01*
X179849D01*
X179029Y156265D01*
Y152985D01*
X179849Y152165D01*
X181489D01*
X182309Y152985D01*
X183949Y152165D02*
Y157085D01*
X186409D01*
X187229Y156265D01*
Y154625D01*
X186409Y153805D01*
X183949D01*
X188868Y157085D02*
Y152165D01*
X191328D01*
X192148Y152985D01*
Y156265D01*
X191328Y157085D01*
X188868D01*
X37697Y46456D02*
X40977D01*
X27264Y46653D02*
X30544D01*
X28904Y48293D02*
Y45013D01*
X184940Y24900D02*
X183300D01*
X182480Y24080D01*
Y20800D01*
X183300Y19980D01*
X184940D01*
X185760Y20800D01*
Y24080D01*
X184940Y24900D01*
X190680D02*
X187400D01*
Y22440D01*
X189040D01*
X187400D01*
Y19980D01*
X195599Y24900D02*
X192320D01*
Y22440D01*
X193959D01*
X192320D01*
Y19980D01*
X201082Y46357D02*
X199442D01*
X198622Y45537D01*
Y42257D01*
X199442Y41437D01*
X201082D01*
X201902Y42257D01*
Y45537D01*
X201082Y46357D01*
X203542Y41437D02*
Y46357D01*
X206821Y41437D01*
Y46357D01*
X202362Y82610D02*
Y79331D01*
X199082Y82610D01*
X198263D01*
X197442Y81791D01*
Y80151D01*
X198263Y79331D01*
X202362Y86710D02*
X197442D01*
X199902Y84250D01*
Y87530D01*
X197442Y89170D02*
X200722D01*
X202362Y90810D01*
X200722Y92450D01*
X197442D01*
X207709Y56593D02*
X204429D01*
Y54133D01*
X206069Y54953D01*
X206889D01*
X207709Y54133D01*
Y52493D01*
X206889Y51673D01*
X205249D01*
X204429Y52493D01*
X209349Y56593D02*
Y53313D01*
X210989Y51673D01*
X212629Y53313D01*
Y56593D01*
X223457Y98293D02*
X222637Y99113D01*
X220997D01*
X220177Y98293D01*
Y95013D01*
X220997Y94193D01*
X222637D01*
X223457Y95013D01*
Y96653D01*
X221817D01*
X222965Y56167D02*
X222145Y56987D01*
X220505D01*
X219685Y56167D01*
Y52887D01*
X220505Y52067D01*
X222145D01*
X222965Y52887D01*
Y54527D01*
X221325D01*
X89566Y20077D02*
X87926D01*
X87106Y19257D01*
Y15977D01*
X87926Y15157D01*
X89566D01*
X90386Y15977D01*
Y19257D01*
X89566Y20077D01*
X92026Y15157D02*
Y20077D01*
X95306Y15157D01*
Y20077D01*
X108595D02*
X105315D01*
Y15157D01*
X108595D01*
X105315Y17617D02*
X106955D01*
X110235Y15157D02*
Y20077D01*
X112695D01*
X113514Y19257D01*
Y17617D01*
X112695Y16797D01*
X110235D01*
X111874D02*
X113514Y15157D01*
X115154D02*
Y20077D01*
X117614D01*
X118434Y19257D01*
Y17617D01*
X117614Y16797D01*
X115154D01*
X116794D02*
X118434Y15157D01*
X53575Y134710D02*
X52755Y135530D01*
X51115D01*
X50295Y134710D01*
Y131430D01*
X51115Y130610D01*
X52755D01*
X53575Y131430D01*
Y133070D01*
X51935D01*
X53280Y148293D02*
X52460Y149113D01*
X50820D01*
X50000Y148293D01*
Y145013D01*
X50820Y144193D01*
X52460D01*
X53280Y145013D01*
Y146653D01*
X51640D01*
X81299Y129625D02*
X84579D01*
X82939Y131265D02*
Y127985D01*
X81398Y143503D02*
X84677D01*
X83038Y145143D02*
Y141863D01*
X62236Y124211D02*
X58957D01*
Y121751D01*
X60597D01*
X58957D01*
Y119291D01*
X63876D02*
Y122571D01*
X65516Y124211D01*
X67156Y122571D01*
Y119291D01*
Y121751D01*
X63876D01*
X68796Y119291D02*
Y124211D01*
X72076Y119291D01*
Y124211D01*
X76995Y123391D02*
X76175Y124211D01*
X74536D01*
X73716Y123391D01*
Y122571D01*
X74536Y121751D01*
X76175D01*
X76995Y120931D01*
Y120111D01*
X76175Y119291D01*
X74536D01*
X73716Y120111D01*
X130051Y20077D02*
X126772D01*
Y15157D01*
X130051D01*
X126772Y17617D02*
X128411D01*
X131691Y15157D02*
Y20077D01*
X134971Y15157D01*
Y20077D01*
X30709Y14370D02*
Y19290D01*
X33169D01*
X33988Y18470D01*
Y16830D01*
X33169Y16010D01*
X30709D01*
X35628Y19290D02*
Y14370D01*
X37268Y16010D01*
X38908Y14370D01*
Y19290D01*
X40548Y14370D02*
Y19290D01*
X43008D01*
X43828Y18470D01*
Y16830D01*
X43008Y16010D01*
X40548D01*
X42188D02*
X43828Y14370D01*
X159351Y11614D02*
X161647D01*
X162106Y12073D01*
Y12992D01*
X161647Y13451D01*
X159351D01*
X162106Y14369D02*
Y15288D01*
Y14828D01*
X159351D01*
X159810Y14369D01*
Y16665D02*
X159351Y17124D01*
Y18043D01*
X159810Y18502D01*
X161647D01*
X162106Y18043D01*
Y17124D01*
X161647Y16665D01*
X159810D01*
X162106Y19420D02*
Y20338D01*
Y19879D01*
X159351D01*
X159810Y19420D01*
D16*
X6266Y69389D02*
X5347D01*
X5807D01*
Y67093D01*
X5347Y66634D01*
X4888D01*
X4429Y67093D01*
X7184Y66634D02*
X8102D01*
X7643D01*
Y69389D01*
X7184Y68930D01*
X9480D02*
X9939Y69389D01*
X10858D01*
X11317Y68930D01*
Y67093D01*
X10858Y66634D01*
X9939D01*
X9480Y67093D01*
Y68930D01*
X12235D02*
X12694Y69389D01*
X13612D01*
X14072Y68930D01*
Y67093D01*
X13612Y66634D01*
X12694D01*
X12235Y67093D01*
Y68930D01*
X7053Y137007D02*
X6135D01*
X6594D01*
Y134711D01*
X6135Y134252D01*
X5676D01*
X5217Y134711D01*
X7972Y134252D02*
X8890D01*
X8431D01*
Y137007D01*
X7972Y136548D01*
X10267D02*
X10727Y137007D01*
X11645D01*
X12104Y136548D01*
Y134711D01*
X11645Y134252D01*
X10727D01*
X10267Y134711D01*
Y136548D01*
X14859Y134252D02*
X13022D01*
X14859Y136089D01*
Y136548D01*
X14400Y137007D01*
X13482D01*
X13022Y136548D01*
X25337Y68731D02*
X24418D01*
X24878D01*
Y66435D01*
X24418Y65976D01*
X23959D01*
X23500Y66435D01*
X26255Y65976D02*
X27173D01*
X26714D01*
Y68731D01*
X26255Y68271D01*
X28551D02*
X29010Y68731D01*
X29928D01*
X30387Y68271D01*
Y66435D01*
X29928Y65976D01*
X29010D01*
X28551Y66435D01*
Y68271D01*
X31306Y65976D02*
X32224D01*
X31765D01*
Y68731D01*
X31306Y68271D01*
X85499Y41600D02*
X85040Y41141D01*
Y40223D01*
X85499Y39764D01*
X87336D01*
X87795Y40223D01*
Y41141D01*
X87336Y41600D01*
X87795Y42519D02*
Y43437D01*
Y42978D01*
X85040D01*
X85499Y42519D01*
Y44815D02*
X85040Y45274D01*
Y46192D01*
X85499Y46651D01*
X87336D01*
X87795Y46192D01*
Y45274D01*
X87336Y44815D01*
X85499D01*
X87795Y48947D02*
X85040D01*
X86418Y47570D01*
Y49406D01*
X108661Y86417D02*
Y89172D01*
X110039D01*
X110498Y88713D01*
Y87795D01*
X110039Y87336D01*
X108661D01*
X109580D02*
X110498Y86417D01*
X111416D02*
X112335D01*
X111876D01*
Y89172D01*
X111416Y88713D01*
X113712D02*
X114172Y89172D01*
X115090D01*
X115549Y88713D01*
Y86876D01*
X115090Y86417D01*
X114172D01*
X113712Y86876D01*
Y88713D01*
X118304Y89172D02*
X116467D01*
Y87795D01*
X117386Y88254D01*
X117845D01*
X118304Y87795D01*
Y86876D01*
X117845Y86417D01*
X116927D01*
X116467Y86876D01*
X49837Y109771D02*
X49378Y110231D01*
X48459D01*
X48000Y109771D01*
Y107935D01*
X48459Y107476D01*
X49378D01*
X49837Y107935D01*
X50755Y107476D02*
X51673D01*
X51214D01*
Y110231D01*
X50755Y109771D01*
X53051D02*
X53510Y110231D01*
X54428D01*
X54887Y109771D01*
Y107935D01*
X54428Y107476D01*
X53510D01*
X53051Y107935D01*
Y109771D01*
X55806Y107476D02*
X56724D01*
X56265D01*
Y110231D01*
X55806Y109771D01*
X147704Y56364D02*
X147245Y55905D01*
Y54987D01*
X147704Y54528D01*
X149541D01*
X150000Y54987D01*
Y55905D01*
X149541Y56364D01*
X150000Y57283D02*
Y58201D01*
Y57742D01*
X147245D01*
X147704Y57283D01*
Y59578D02*
X147245Y60038D01*
Y60956D01*
X147704Y61415D01*
X149541D01*
X150000Y60956D01*
Y60038D01*
X149541Y59578D01*
X147704D01*
Y62334D02*
X147245Y62793D01*
Y63711D01*
X147704Y64170D01*
X149541D01*
X150000Y63711D01*
Y62793D01*
X149541Y62334D01*
X147704D01*
X151600Y119531D02*
Y116776D01*
X152978D01*
X153437Y117235D01*
Y119071D01*
X152978Y119531D01*
X151600D01*
X154355Y116776D02*
X155273D01*
X154814D01*
Y119531D01*
X154355Y119071D01*
X156651D02*
X157110Y119531D01*
X158028D01*
X158488Y119071D01*
Y117235D01*
X158028Y116776D01*
X157110D01*
X156651Y117235D01*
Y119071D01*
X159406D02*
X159865Y119531D01*
X160783D01*
X161243Y119071D01*
Y117235D01*
X160783Y116776D01*
X159865D01*
X159406Y117235D01*
Y119071D01*
X122243Y69095D02*
X119947D01*
X119488Y68635D01*
Y67717D01*
X119947Y67258D01*
X122243D01*
X119488Y66339D02*
Y65421D01*
Y65880D01*
X122243D01*
X121784Y66339D01*
Y64044D02*
X122243Y63585D01*
Y62666D01*
X121784Y62207D01*
X119947D01*
X119488Y62666D01*
Y63585D01*
X119947Y64044D01*
X121784D01*
Y61289D02*
X122243Y60829D01*
Y59911D01*
X121784Y59452D01*
X119947D01*
X119488Y59911D01*
Y60829D01*
X119947Y61289D01*
X121784D01*
X101772Y27461D02*
X99017D01*
Y28838D01*
X99476Y29297D01*
X100394D01*
X100853Y28838D01*
Y27461D01*
Y28379D02*
X101772Y29297D01*
Y30216D02*
Y31134D01*
Y30675D01*
X99017D01*
X99476Y30216D01*
X101772Y32511D02*
Y33430D01*
Y32971D01*
X99017D01*
X99476Y32511D01*
Y34807D02*
X99017Y35267D01*
Y36185D01*
X99476Y36644D01*
X101312D01*
X101772Y36185D01*
Y35267D01*
X101312Y34807D01*
X99476D01*
X141051Y27681D02*
X138296D01*
Y29059D01*
X138755Y29518D01*
X139674D01*
X140133Y29059D01*
Y27681D01*
Y28599D02*
X141051Y29518D01*
Y30436D02*
Y31354D01*
Y30895D01*
X138296D01*
X138755Y30436D01*
Y32732D02*
X138296Y33191D01*
Y34110D01*
X138755Y34569D01*
X140592D01*
X141051Y34110D01*
Y33191D01*
X140592Y32732D01*
X138755D01*
X140592Y35487D02*
X141051Y35946D01*
Y36865D01*
X140592Y37324D01*
X138755D01*
X138296Y36865D01*
Y35946D01*
X138755Y35487D01*
X139215D01*
X139674Y35946D01*
Y37324D01*
X169882Y22244D02*
Y24999D01*
X171259D01*
X171719Y24540D01*
Y23622D01*
X171259Y23162D01*
X169882D01*
X170800D02*
X171719Y22244D01*
X172637D02*
X173555D01*
X173096D01*
Y24999D01*
X172637Y24540D01*
X174933D02*
X175392Y24999D01*
X176310D01*
X176769Y24540D01*
Y22703D01*
X176310Y22244D01*
X175392D01*
X174933Y22703D01*
Y24540D01*
X177688Y24999D02*
X179525D01*
Y24540D01*
X177688Y22703D01*
Y22244D01*
X121850Y26969D02*
X119095D01*
Y28346D01*
X119554Y28805D01*
X120473D01*
X120932Y28346D01*
Y26969D01*
Y27887D02*
X121850Y28805D01*
Y29724D02*
Y30642D01*
Y30183D01*
X119095D01*
X119554Y29724D01*
Y32019D02*
X119095Y32478D01*
Y33397D01*
X119554Y33856D01*
X121391D01*
X121850Y33397D01*
Y32478D01*
X121391Y32019D01*
X119554D01*
X119095Y36611D02*
X119554Y35693D01*
X120473Y34774D01*
X121391D01*
X121850Y35234D01*
Y36152D01*
X121391Y36611D01*
X120932D01*
X120473Y36152D01*
Y34774D01*
X118508Y42421D02*
Y45176D01*
X119885D01*
X120345Y44717D01*
Y43799D01*
X119885Y43340D01*
X118508D01*
X119426D02*
X120345Y42421D01*
X121263D02*
X122181D01*
X121722D01*
Y45176D01*
X121263Y44717D01*
X123559D02*
X124018Y45176D01*
X124936D01*
X125395Y44717D01*
Y42880D01*
X124936Y42421D01*
X124018D01*
X123559Y42880D01*
Y44717D01*
X127691Y42421D02*
Y45176D01*
X126314Y43799D01*
X128150D01*
X107874Y91240D02*
Y93995D01*
X109251D01*
X109711Y93536D01*
Y92618D01*
X109251Y92159D01*
X107874D01*
X108792D02*
X109711Y91240D01*
X110629D02*
X111547D01*
X111088D01*
Y93995D01*
X110629Y93536D01*
X112925D02*
X113384Y93995D01*
X114302D01*
X114762Y93536D01*
Y91699D01*
X114302Y91240D01*
X113384D01*
X112925Y91699D01*
Y93536D01*
X115680D02*
X116139Y93995D01*
X117057D01*
X117517Y93536D01*
Y93077D01*
X117057Y92618D01*
X116598D01*
X117057D01*
X117517Y92159D01*
Y91699D01*
X117057Y91240D01*
X116139D01*
X115680Y91699D01*
X131693Y70079D02*
Y72834D01*
X133070D01*
X133530Y72375D01*
Y71456D01*
X133070Y70997D01*
X131693D01*
X132611D02*
X133530Y70079D01*
X134448D02*
X135366D01*
X134907D01*
Y72834D01*
X134448Y72375D01*
X136744D02*
X137203Y72834D01*
X138121D01*
X138581Y72375D01*
Y70538D01*
X138121Y70079D01*
X137203D01*
X136744Y70538D01*
Y72375D01*
X141335Y70079D02*
X139499D01*
X141335Y71915D01*
Y72375D01*
X140876Y72834D01*
X139958D01*
X139499Y72375D01*
X118508Y51083D02*
Y53838D01*
X119885D01*
X120345Y53378D01*
Y52460D01*
X119885Y52001D01*
X118508D01*
X119426D02*
X120345Y51083D01*
X121263D02*
X122181D01*
X121722D01*
Y53838D01*
X121263Y53378D01*
X123559D02*
X124018Y53838D01*
X124936D01*
X125395Y53378D01*
Y51542D01*
X124936Y51083D01*
X124018D01*
X123559Y51542D01*
Y53378D01*
X126314Y51083D02*
X127232D01*
X126773D01*
Y53838D01*
X126314Y53378D01*
X118508Y46766D02*
Y49521D01*
X119885D01*
X120345Y49062D01*
Y48143D01*
X119885Y47684D01*
X118508D01*
X119426D02*
X120345Y46766D01*
X121263D02*
X122181D01*
X121722D01*
Y49521D01*
X121263Y49062D01*
X123559D02*
X124018Y49521D01*
X124936D01*
X125395Y49062D01*
Y47225D01*
X124936Y46766D01*
X124018D01*
X123559Y47225D01*
Y49062D01*
X126314D02*
X126773Y49521D01*
X127691D01*
X128150Y49062D01*
Y47225D01*
X127691Y46766D01*
X126773D01*
X126314Y47225D01*
Y49062D01*
X85040Y22539D02*
X87795D01*
Y24376D01*
X85040Y27131D02*
Y25294D01*
X87795D01*
Y27131D01*
X86418Y25294D02*
Y26213D01*
X85040Y28049D02*
X87795D01*
Y29427D01*
X87336Y29886D01*
X85499D01*
X85040Y29427D01*
Y28049D01*
X87795Y30804D02*
Y31723D01*
Y31264D01*
X85040D01*
X85499Y30804D01*
Y33100D02*
X85040Y33560D01*
Y34478D01*
X85499Y34937D01*
X87336D01*
X87795Y34478D01*
Y33560D01*
X87336Y33100D01*
X85499D01*
Y35855D02*
X85040Y36314D01*
Y37233D01*
X85499Y37692D01*
X85959D01*
X86418Y37233D01*
Y36774D01*
Y37233D01*
X86877Y37692D01*
X87336D01*
X87795Y37233D01*
Y36314D01*
X87336Y35855D01*
X123918Y24311D02*
X126673D01*
Y26148D01*
X123918Y28903D02*
Y27066D01*
X126673D01*
Y28903D01*
X125296Y27066D02*
Y27984D01*
X123918Y29821D02*
X126673D01*
Y31199D01*
X126214Y31658D01*
X124377D01*
X123918Y31199D01*
Y29821D01*
X126673Y32576D02*
Y33494D01*
Y33035D01*
X123918D01*
X124377Y32576D01*
Y34872D02*
X123918Y35331D01*
Y36249D01*
X124377Y36709D01*
X126214D01*
X126673Y36249D01*
Y35331D01*
X126214Y34872D01*
X124377D01*
X126673Y39464D02*
Y37627D01*
X124837Y39464D01*
X124377D01*
X123918Y39004D01*
Y38086D01*
X124377Y37627D01*
X104233Y23130D02*
X106988D01*
Y24967D01*
X104233Y27722D02*
Y25885D01*
X106988D01*
Y27722D01*
X105611Y25885D02*
Y26803D01*
X104233Y28640D02*
X106988D01*
Y30018D01*
X106529Y30477D01*
X104692D01*
X104233Y30018D01*
Y28640D01*
X106988Y31395D02*
Y32313D01*
Y31854D01*
X104233D01*
X104692Y31395D01*
Y33691D02*
X104233Y34150D01*
Y35068D01*
X104692Y35528D01*
X106529D01*
X106988Y35068D01*
Y34150D01*
X106529Y33691D01*
X104692D01*
Y36446D02*
X104233Y36905D01*
Y37823D01*
X104692Y38282D01*
X106529D01*
X106988Y37823D01*
Y36905D01*
X106529Y36446D01*
X104692D01*
X207537Y77331D02*
X206618D01*
X207078D01*
Y75035D01*
X206618Y74576D01*
X206159D01*
X205700Y75035D01*
X208455Y74576D02*
X209373D01*
X208914D01*
Y77331D01*
X208455Y76871D01*
X210751D02*
X211210Y77331D01*
X212128D01*
X212588Y76871D01*
Y75035D01*
X212128Y74576D01*
X211210D01*
X210751Y75035D01*
Y76871D01*
X215343Y77331D02*
X213506D01*
Y75953D01*
X214424Y76412D01*
X214883D01*
X215343Y75953D01*
Y75035D01*
X214883Y74576D01*
X213965D01*
X213506Y75035D01*
X81463Y150590D02*
X80544D01*
X81003D01*
Y148294D01*
X80544Y147835D01*
X80085D01*
X79626Y148294D01*
X82381Y147835D02*
X83299D01*
X82840D01*
Y150590D01*
X82381Y150130D01*
X84677D02*
X85136Y150590D01*
X86054D01*
X86514Y150130D01*
Y148294D01*
X86054Y147835D01*
X85136D01*
X84677Y148294D01*
Y150130D01*
X87432Y148294D02*
X87891Y147835D01*
X88809D01*
X89269Y148294D01*
Y150130D01*
X88809Y150590D01*
X87891D01*
X87432Y150130D01*
Y149671D01*
X87891Y149212D01*
X89269D01*
X152237Y47331D02*
X151318D01*
X151778D01*
Y45035D01*
X151318Y44576D01*
X150859D01*
X150400Y45035D01*
X153155Y44576D02*
X154073D01*
X153614D01*
Y47331D01*
X153155Y46871D01*
X155451D02*
X155910Y47331D01*
X156828D01*
X157288Y46871D01*
Y45035D01*
X156828Y44576D01*
X155910D01*
X155451Y45035D01*
Y46871D01*
X158206D02*
X158665Y47331D01*
X159583D01*
X160043Y46871D01*
Y46412D01*
X159583Y45953D01*
X160043Y45494D01*
Y45035D01*
X159583Y44576D01*
X158665D01*
X158206Y45035D01*
Y45494D01*
X158665Y45953D01*
X158206Y46412D01*
Y46871D01*
X158665Y45953D02*
X159583D01*
X81758Y137007D02*
X80840D01*
X81299D01*
Y134711D01*
X80840Y134252D01*
X80380D01*
X79921Y134711D01*
X82676Y134252D02*
X83595D01*
X83135D01*
Y137007D01*
X82676Y136548D01*
X84972D02*
X85431Y137007D01*
X86350D01*
X86809Y136548D01*
Y134711D01*
X86350Y134252D01*
X85431D01*
X84972Y134711D01*
Y136548D01*
X87727Y137007D02*
X89564D01*
Y136548D01*
X87727Y134711D01*
Y134252D01*
X183037Y45031D02*
X182118D01*
X182578D01*
Y42735D01*
X182118Y42276D01*
X181659D01*
X181200Y42735D01*
X183955Y42276D02*
X184873D01*
X184414D01*
Y45031D01*
X183955Y44571D01*
X186251D02*
X186710Y45031D01*
X187628D01*
X188088Y44571D01*
Y42735D01*
X187628Y42276D01*
X186710D01*
X186251Y42735D01*
Y44571D01*
X190843Y45031D02*
X189924Y44571D01*
X189006Y43653D01*
Y42735D01*
X189465Y42276D01*
X190383D01*
X190843Y42735D01*
Y43194D01*
X190383Y43653D01*
X189006D01*
X132153Y57250D02*
X131694Y56791D01*
Y55873D01*
X132153Y55413D01*
X133990D01*
X134449Y55873D01*
Y56791D01*
X133990Y57250D01*
X134449Y58168D02*
Y59087D01*
Y58628D01*
X131694D01*
X132153Y58168D01*
Y60464D02*
X131694Y60923D01*
Y61842D01*
X132153Y62301D01*
X133990D01*
X134449Y61842D01*
Y60923D01*
X133990Y60464D01*
X132153D01*
X131694Y65056D02*
Y63219D01*
X133071D01*
X132612Y64138D01*
Y64597D01*
X133071Y65056D01*
X133990D01*
X134449Y64597D01*
Y63678D01*
X133990Y63219D01*
X90125Y41207D02*
X89666Y40748D01*
Y39829D01*
X90125Y39370D01*
X91962D01*
X92421Y39829D01*
Y40748D01*
X91962Y41207D01*
X92421Y42125D02*
Y43043D01*
Y42584D01*
X89666D01*
X90125Y42125D01*
Y44421D02*
X89666Y44880D01*
Y45799D01*
X90125Y46258D01*
X91962D01*
X92421Y45799D01*
Y44880D01*
X91962Y44421D01*
X90125D01*
Y47176D02*
X89666Y47635D01*
Y48553D01*
X90125Y49013D01*
X90585D01*
X91044Y48553D01*
Y48094D01*
Y48553D01*
X91503Y49013D01*
X91962D01*
X92421Y48553D01*
Y47635D01*
X91962Y47176D01*
X92978Y92355D02*
X92519Y92814D01*
X91601D01*
X91142Y92355D01*
Y90518D01*
X91601Y90059D01*
X92519D01*
X92978Y90518D01*
X93897Y90059D02*
X94815D01*
X94356D01*
Y92814D01*
X93897Y92355D01*
X96193D02*
X96652Y92814D01*
X97570D01*
X98029Y92355D01*
Y90518D01*
X97570Y90059D01*
X96652D01*
X96193Y90518D01*
Y92355D01*
X100784Y90059D02*
X98948D01*
X100784Y91896D01*
Y92355D01*
X100325Y92814D01*
X99407D01*
X98948Y92355D01*
X139435Y91699D02*
Y93536D01*
X138976Y93995D01*
X138058D01*
X137598Y93536D01*
Y91699D01*
X138058Y91240D01*
X138976D01*
X138517Y92159D02*
X139435Y91240D01*
X138976D02*
X139435Y91699D01*
X140353Y91240D02*
X141272D01*
X140813D01*
Y93995D01*
X140353Y93536D01*
X142649D02*
X143108Y93995D01*
X144027D01*
X144486Y93536D01*
Y91699D01*
X144027Y91240D01*
X143108D01*
X142649Y91699D01*
Y93536D01*
X145404D02*
X145863Y93995D01*
X146782D01*
X147241Y93536D01*
Y91699D01*
X146782Y91240D01*
X145863D01*
X145404Y91699D01*
Y93536D01*
X96555Y151279D02*
Y148524D01*
X98392D01*
X99310D02*
X100229D01*
X99769D01*
Y151279D01*
X99310Y150820D01*
X101606D02*
X102065Y151279D01*
X102983D01*
X103443Y150820D01*
Y148983D01*
X102983Y148524D01*
X102065D01*
X101606Y148983D01*
Y150820D01*
X104361D02*
X104820Y151279D01*
X105738D01*
X106198Y150820D01*
Y148983D01*
X105738Y148524D01*
X104820D01*
X104361Y148983D01*
Y150820D01*
X207537Y97731D02*
X206618D01*
X207078D01*
Y95435D01*
X206618Y94976D01*
X206159D01*
X205700Y95435D01*
X208455Y94976D02*
X209373D01*
X208914D01*
Y97731D01*
X208455Y97271D01*
X210751D02*
X211210Y97731D01*
X212128D01*
X212588Y97271D01*
Y95435D01*
X212128Y94976D01*
X211210D01*
X210751Y95435D01*
Y97271D01*
X213506D02*
X213965Y97731D01*
X214883D01*
X215343Y97271D01*
Y96812D01*
X214883Y96353D01*
X214424D01*
X214883D01*
X215343Y95894D01*
Y95435D01*
X214883Y94976D01*
X213965D01*
X213506Y95435D01*
D17*
X178411Y140846D02*
X177493D01*
X177952D01*
Y138550D01*
X177493Y138091D01*
X177034D01*
X176575Y138550D01*
X179330Y138091D02*
X180248D01*
X179789D01*
Y140846D01*
X179330Y140386D01*
X181626D02*
X182085Y140846D01*
X183003D01*
X183462Y140386D01*
Y138550D01*
X183003Y138091D01*
X182085D01*
X181626Y138550D01*
Y140386D01*
X185758Y138091D02*
Y140846D01*
X184381Y139468D01*
X186217D01*
M02*
