M48
;Layer_Color=9474304
;FILE_FORMAT=2:5
INCH,LZ
;TYPE=PLATED
T1F00S00C0.01181
T2F00S00C0.01200
T3F00S00C0.03346
T4F00S00C0.03937
T5F00S00C0.12205
%
T01
X0005906Y0025295
Y0063779
T02
X0035827Y0008169
X0047638
X0041732Y001998
X0029921
X0030118Y0027264
X0035827Y0031791
X0047638
X0053543Y0043602
X0041732
X0029921
X0024016Y0031791
X001998Y0032382
Y005689
X0065256
Y0060433
X0074803
Y0057087
X0083071Y0055413
X0094882
X0097441Y004065
X0088976Y0043602
X0077165
X0065354
X007126Y0031791
X0083071
X008937Y0027264
X0088976Y001998
X0077165
X0065354
X007126Y0008169
X0083071
X0094882
X0106693
X0118504
X0130315
X013937Y000748
Y002126
X0146457Y0024803
X0150197Y0024902
X0157972Y0025
X0159842Y001998
X0155905Y0011811
X0165748Y0011713
X0165748Y0008169
X0177559
X018937
X0201181
X0183465Y001998
X0177559Y0031791
X0171653Y0043602
X0159842
X0148031
X013622
X0124409
X0117028Y0044291
X0117126Y0052461
X0116535Y0058957
X0123425Y0057382
X0142126Y0055413
X0153937
X0168012Y0056299
Y0059842
X0177559Y0059744
X0177657Y0056299
X018937Y0055413
X0196949Y0056201
X0142126Y0031791
X0127854Y0027854
X0106693Y0031791
X0059449
Y0008169
X0212992Y0031791
X0224803
X0218898Y0043602
X0224803Y0055413
Y0079035
X0212992
X0224803Y0102657
X018937
X0195275Y0114468
X0183465
X0171653
X0165748Y0126279
X0171653Y0138091
X0183465
X0195275
X0207086
X0201181Y0149901
X018937
X0177559
X0165748
X0153937
X0142126
X0130315
X0118504
X0106693
X0112598Y0161713
X0124409
X013622
X0148031
X0159842
X0171653
X0183465
X0195275
X0207086
X0201181Y0126279
X0183465Y0090846
X018937Y0079035
X0177559
X0165748
X0159842Y0067224
X0148031
X013622
X0132087Y0074902
X0124803Y0074705
X0119783Y0081791
X0119685Y0085433
X0119783Y0089173
X0112598Y0090846
X0106201Y0090059
X0106693Y0102657
X0118504
X0130315
X0142126
X013622Y0090846
X0114469Y0084153
X0112598Y0067224
X0100787
X0088976
X0077165
X0093898Y0086614
X0112598Y0114468
X0124409
X0130315Y0126279
X0118504
X0124409Y0138091
X013622
X0148031
X0159842
X0112598
X0100787Y0161713
X0088976
X0077165
X0065354
X0183465Y0067224
X0053543Y0138091
X0041732
X0047638Y0149901
X0035827
X0041732Y0161713
X0053543
X0029921
T03
X0215059Y0123031
X0205217
X0195374
X0185531
T04
X0029173Y005689
X0039173
X0156102Y0035433
X0166102
X0186902Y0033154
X0196902
X0206902
X0221358Y0065453
Y0085925
X0211358
Y0065453
X0072563Y0133343
X0062563
X0062598Y0146949
X0072598
X0041476Y0120748
Y0110906
Y0103032
Y0093189
T05
X0030807Y0081102
Y0132835
M30
