G04*
G04 #@! TF.GenerationSoftware,Altium Limited,Altium Designer,19.1.9 (167)*
G04*
G04 Layer_Color=8388736*
%FSLAX25Y25*%
%MOIN*%
G70*
G01*
G75*
%ADD36R,0.08280X0.08280*%
%ADD37R,0.08280X0.07887*%
%ADD38R,0.06115X0.02375*%
%ADD39R,0.07099X0.09068*%
%ADD40R,0.08280X0.10446*%
%ADD41R,0.02414X0.02769*%
%ADD42R,0.03280X0.02769*%
%ADD43R,0.02965X0.02965*%
%ADD44R,0.13792X0.20879*%
%ADD45R,0.03950X0.03950*%
%ADD46R,0.06509X0.05328*%
%ADD47R,0.03162X0.05524*%
%ADD48R,0.02965X0.02965*%
%ADD49R,0.04934X0.14186*%
%ADD50R,0.09068X0.17729*%
%ADD51R,0.03359X0.06804*%
%ADD52R,0.03005X0.03241*%
%ADD53R,0.06076X0.07887*%
%ADD54C,0.06706*%
%ADD55C,0.18517*%
%ADD56C,0.07493*%
%ADD57R,0.07493X0.07493*%
%ADD58C,0.03200*%
D36*
X6004Y39862D02*
D03*
Y49311D02*
D03*
D37*
Y29626D02*
D03*
Y59547D02*
D03*
D38*
X16535Y44587D02*
D03*
Y47146D02*
D03*
Y49705D02*
D03*
Y42028D02*
D03*
Y39469D02*
D03*
D39*
X16043Y56791D02*
D03*
Y32382D02*
D03*
D40*
X142000Y82823D02*
D03*
D41*
X146547Y86661D02*
D03*
Y84102D02*
D03*
Y81543D02*
D03*
Y78984D02*
D03*
D42*
X134815D02*
D03*
Y81543D02*
D03*
Y84102D02*
D03*
Y86661D02*
D03*
D43*
X27165Y33465D02*
D03*
Y37008D02*
D03*
X128347Y70669D02*
D03*
Y74213D02*
D03*
X116634Y33957D02*
D03*
Y30413D02*
D03*
X104528Y90059D02*
D03*
Y86516D02*
D03*
X96358Y33760D02*
D03*
Y30217D02*
D03*
X135236Y34154D02*
D03*
Y30610D02*
D03*
D44*
X142063Y121276D02*
D03*
X99937D02*
D03*
D45*
X32382Y27264D02*
D03*
Y33563D02*
D03*
X91512Y33591D02*
D03*
Y27291D02*
D03*
X130327Y34181D02*
D03*
Y27882D02*
D03*
X111740Y34024D02*
D03*
Y27724D02*
D03*
D46*
X97539Y43602D02*
D03*
Y50492D02*
D03*
X105709Y50492D02*
D03*
Y43602D02*
D03*
X126870Y64173D02*
D03*
Y57284D02*
D03*
D47*
X153937Y11909D02*
D03*
X146457D02*
D03*
Y21752D02*
D03*
X150197D02*
D03*
X153937D02*
D03*
D48*
X115256Y44291D02*
D03*
X111713D02*
D03*
Y48376D02*
D03*
X115256D02*
D03*
Y52461D02*
D03*
X111713D02*
D03*
X166339Y23917D02*
D03*
X162795D02*
D03*
D49*
X122500Y84276D02*
D03*
X128405D02*
D03*
D50*
X172835Y94291D02*
D03*
Y57677D02*
D03*
X70000Y94276D02*
D03*
Y57661D02*
D03*
D51*
X99500Y59098D02*
D03*
X104500D02*
D03*
X109500D02*
D03*
X114500D02*
D03*
Y80453D02*
D03*
X109500D02*
D03*
X104500D02*
D03*
X99500D02*
D03*
D52*
X95728Y86516D02*
D03*
X99508D02*
D03*
D53*
X153917Y110138D02*
D03*
X165177D02*
D03*
D54*
X41476Y120748D02*
D03*
Y110906D02*
D03*
Y103032D02*
D03*
Y93189D02*
D03*
X185531Y123031D02*
D03*
X195374D02*
D03*
X205217D02*
D03*
X215059D02*
D03*
D55*
X30807Y132835D02*
D03*
Y81102D02*
D03*
D56*
X39173Y56890D02*
D03*
X62598Y146949D02*
D03*
X62563Y133343D02*
D03*
X221358Y65453D02*
D03*
X196902Y33154D02*
D03*
X186902D02*
D03*
X156102Y35433D02*
D03*
X221358Y85925D02*
D03*
D57*
X29173Y56890D02*
D03*
X72598Y146949D02*
D03*
X72563Y133343D02*
D03*
X211358Y65453D02*
D03*
X206902Y33154D02*
D03*
X166102Y35433D02*
D03*
X211358Y85925D02*
D03*
D58*
X114469Y84153D02*
D03*
M02*
