G04*
G04 #@! TF.GenerationSoftware,Altium Limited,Altium Designer,19.1.9 (167)*
G04*
G04 Layer_Color=8421504*
%FSLAX25Y25*%
%MOIN*%
G70*
G01*
G75*
%ADD18R,0.07480X0.07480*%
%ADD19R,0.07480X0.07087*%
%ADD20R,0.05315X0.01575*%
%ADD21R,0.06299X0.08268*%
%ADD22R,0.07480X0.09646*%
%ADD23R,0.01614X0.01968*%
%ADD24R,0.02480X0.01968*%
%ADD25R,0.02165X0.02165*%
%ADD26R,0.12992X0.20079*%
%ADD27R,0.03150X0.03150*%
%ADD28R,0.05709X0.04528*%
%ADD29R,0.02362X0.04724*%
%ADD30R,0.02165X0.02165*%
%ADD31R,0.04134X0.13386*%
%ADD32R,0.08268X0.16929*%
%ADD33R,0.02559X0.06004*%
%ADD34R,0.02205X0.02441*%
%ADD35R,0.05276X0.07087*%
D18*
X6004Y39862D02*
D03*
Y49311D02*
D03*
D19*
Y29626D02*
D03*
Y59547D02*
D03*
D20*
X16535Y44587D02*
D03*
Y47146D02*
D03*
Y49705D02*
D03*
Y42028D02*
D03*
Y39469D02*
D03*
D21*
X16043Y56791D02*
D03*
Y32382D02*
D03*
D22*
X142000Y82823D02*
D03*
D23*
X146547Y86661D02*
D03*
Y84102D02*
D03*
Y81543D02*
D03*
Y78984D02*
D03*
D24*
X134815D02*
D03*
Y81543D02*
D03*
Y84102D02*
D03*
Y86661D02*
D03*
D25*
X27165Y33465D02*
D03*
Y37008D02*
D03*
X128347Y70669D02*
D03*
Y74213D02*
D03*
X116634Y33957D02*
D03*
Y30413D02*
D03*
X104528Y90059D02*
D03*
Y86516D02*
D03*
X96358Y33760D02*
D03*
Y30217D02*
D03*
X135236Y34154D02*
D03*
Y30610D02*
D03*
D26*
X142063Y121276D02*
D03*
X99937D02*
D03*
D27*
X32382Y27264D02*
D03*
Y33563D02*
D03*
X91512Y33591D02*
D03*
Y27291D02*
D03*
X130327Y34181D02*
D03*
Y27882D02*
D03*
X111740Y34024D02*
D03*
Y27724D02*
D03*
D28*
X97539Y43602D02*
D03*
Y50492D02*
D03*
X105709Y50492D02*
D03*
Y43602D02*
D03*
X126870Y64173D02*
D03*
Y57284D02*
D03*
D29*
X153937Y11909D02*
D03*
X146457D02*
D03*
Y21752D02*
D03*
X150197D02*
D03*
X153937D02*
D03*
D30*
X115256Y44291D02*
D03*
X111713D02*
D03*
Y48376D02*
D03*
X115256D02*
D03*
Y52461D02*
D03*
X111713D02*
D03*
X166339Y23917D02*
D03*
X162795D02*
D03*
D31*
X122500Y84276D02*
D03*
X128405D02*
D03*
D32*
X172835Y94291D02*
D03*
Y57677D02*
D03*
X70000Y94276D02*
D03*
Y57661D02*
D03*
D33*
X99500Y59098D02*
D03*
X104500D02*
D03*
X109500D02*
D03*
X114500D02*
D03*
Y80453D02*
D03*
X109500D02*
D03*
X104500D02*
D03*
X99500D02*
D03*
D34*
X95728Y86516D02*
D03*
X99508D02*
D03*
D35*
X153917Y110138D02*
D03*
X165177D02*
D03*
M02*
